if (_typeface_js && _typeface_js.loadFace) _typeface_js.loadFace({"glyphs":{"0":{"ha":747,"x_min":0,"x_max":0,"o":"m 747 686 b 492 1042 747 883 704 1042 b 28 343 156 1042 28 632 b 283 -12 28 146 71 -12 b 747 686 619 -12 747 397 z m 208 306 b 460 950 208 456 256 950 b 567 724 528 950 567 865 b 315 79 567 574 519 79 b 208 306 247 79 208 164 z "},"1":{"ha":418,"x_min":0,"x_max":0,"o":"m 446 1031 b 378 1046 426 1044 404 1050 b 79 836 300 958 210 864 b 103 749 54 804 76 749 b 221 772 138 749 181 757 l 56 0 b 122 -18 72 -11 97 -18 b 242 71 174 -18 228 6 z "},"2":{"ha":692,"x_min":0,"x_max":0,"o":"m 289 750 b 272 818 278 775 272 797 b 400 956 272 904 325 956 b 513 832 458 956 513 918 b 61 192 513 558 176 417 b 33 6 33 139 21 65 b 132 26 68 -3 108 4 b 475 -15 226 4 368 -15 b 611 246 578 -15 685 82 b 150 154 519 160 371 154 b 678 799 238 393 678 500 b 394 1049 678 974 536 1049 b 132 854 263 1049 132 976 b 289 750 132 761 194 714 z "},"3":{"ha":704,"x_min":0,"x_max":0,"o":"m 747 1017 b 699 1047 738 1032 724 1043 b 560 1014 647 1022 603 1014 b 296 1042 481 1014 406 1042 b 161 839 197 1042 122 971 b 321 881 194 858 264 881 b 532 858 413 881 475 861 b 283 593 464 751 371 668 b 288 519 275 571 274 543 b 465 360 432 540 465 454 b 293 86 465 189 392 86 b 176 215 214 86 176 144 b 300 315 176 286 221 333 b 211 421 308 388 257 421 b 29 208 85 421 29 308 b 301 -11 29 69 132 -11 b 646 374 501 -11 646 172 b 424 592 646 476 589 576 b 747 1017 564 708 711 865 z "},"4":{"ha":713,"x_min":0,"x_max":0,"o":"m 28 354 b 88 271 36 318 54 289 b 153 282 107 276 129 281 b 385 272 253 290 303 279 l 328 0 b 394 -18 344 -11 369 -18 b 514 71 446 -18 500 6 l 556 269 b 647 442 631 281 679 329 b 586 417 632 433 610 424 l 713 1024 b 646 1042 696 1035 671 1042 b 526 953 594 1042 540 1018 l 413 404 b 169 419 333 413 288 433 b 433 919 286 536 433 810 b 317 1042 433 1011 389 1043 b 203 979 281 1040 240 1022 b 272 826 246 956 272 900 b 28 354 272 703 106 435 z "},"5":{"ha":707,"x_min":0,"x_max":0,"o":"m 553 836 b 693 1000 651 836 693 907 b 690 1054 693 1024 692 1039 b 240 1040 553 999 388 1015 l 144 567 b 207 519 157 543 186 524 b 308 536 246 531 279 536 b 453 360 411 536 453 454 b 281 86 453 175 379 86 b 164 215 201 86 164 144 b 288 315 164 286 208 333 b 199 421 296 388 244 421 b 17 208 72 421 17 308 b 289 -11 17 69 119 -11 b 633 374 489 -11 633 172 b 353 622 633 506 553 622 b 235 604 314 622 275 617 l 293 869 b 553 836 367 854 474 836 z "},"6":{"ha":726,"x_min":0,"x_max":0,"o":"m 524 1069 b 29 338 214 1069 29 661 b 289 -12 29 146 110 -12 b 657 383 532 -12 657 201 b 408 635 657 518 576 635 b 229 557 347 635 283 606 b 497 983 265 774 358 983 b 575 832 569 983 589 926 b 699 935 672 817 699 899 b 524 1069 699 1000 657 1069 z m 344 528 b 479 383 440 528 479 463 b 321 85 479 254 408 85 b 213 360 247 85 213 153 b 218 478 213 397 214 438 b 344 528 260 507 304 528 z "},"7":{"ha":583,"x_min":0,"x_max":0,"o":"m 281 72 b 656 961 281 313 371 642 b 640 1047 676 983 661 1024 b 529 1022 613 1038 567 1025 b 182 1069 386 1010 356 1069 b 47 839 83 1069 8 971 b 207 881 81 858 151 881 b 471 857 322 881 363 853 b 94 1 314 676 94 319 b 161 -17 111 -10 136 -17 b 281 72 213 -17 281 6 z "},"8":{"ha":674,"x_min":0,"x_max":0,"o":"m 672 856 b 443 1057 669 965 588 1057 b 154 751 304 1057 154 947 b 249 557 154 663 196 606 b 29 247 97 488 29 375 b 304 -17 29 108 132 -17 b 653 296 475 -17 653 96 b 507 599 653 457 582 539 b 672 856 618 665 675 767 z m 469 260 b 329 100 469 153 401 100 b 197 258 235 100 197 171 b 300 514 197 353 238 447 b 469 260 383 449 469 388 z m 321 815 b 433 967 321 917 378 965 b 453 638 586 969 531 724 b 321 815 382 686 321 731 z "},"9":{"ha":733,"x_min":0,"x_max":0,"o":"m 211 -12 b 706 719 521 -12 706 396 b 446 1069 706 911 625 1069 b 78 715 203 1069 78 876 b 326 422 78 560 158 422 b 506 499 386 422 450 450 b 238 74 469 282 376 74 b 160 225 165 74 146 131 b 36 122 63 240 36 158 b 211 -12 36 57 78 -12 z m 390 529 b 256 715 294 529 256 615 b 414 972 256 828 307 972 b 522 697 488 972 522 904 b 515 578 522 658 519 618 b 390 529 475 549 429 529 z "},"B":{"ha":865,"x_min":0,"x_max":0,"o":"m 657 851 b 457 564 657 739 571 599 l 538 940 b 471 958 521 951 496 958 b 351 869 419 958 365 935 l 193 122 b 129 167 171 135 150 149 b 74 94 90 154 74 125 b 354 -11 74 31 201 -11 b 803 385 619 -11 803 217 b 593 561 803 483 739 561 l 592 563 b 810 868 731 636 810 761 b 511 1069 810 1029 683 1069 b 44 814 294 1069 44 968 b 157 682 44 744 86 682 b 217 696 176 682 196 686 b 189 776 200 715 189 740 b 489 1004 189 915 353 1004 b 657 851 603 1004 657 958 z m 504 501 b 625 378 586 501 625 450 b 354 78 625 229 497 78 l 353 78 l 442 493 b 504 501 464 499 485 501 z "},"C":{"ha":675,"x_min":0,"x_max":0,"o":"m 497 1069 b 35 394 243 1069 35 749 b 349 -11 35 181 131 -11 b 686 126 465 -11 588 28 b 699 157 696 136 699 147 b 675 190 699 171 690 183 b 426 118 583 139 500 118 b 231 418 286 118 231 254 b 478 975 231 708 357 975 b 496 807 586 975 579 842 b 578 751 511 768 553 751 b 690 893 646 751 690 819 b 497 1069 690 978 632 1069 z "},"D":{"ha":960,"x_min":0,"x_max":0,"o":"m 94 213 b -50 86 1 213 -50 146 b 74 -11 -50 25 3 -11 b 263 50 132 -11 200 3 b 446 -11 311 17 369 -11 b 942 656 764 -11 942 347 b 535 1069 942 876 825 1069 b 44 814 206 1069 44 953 b 157 682 44 744 86 682 b 217 696 176 682 196 686 b 189 776 200 715 189 740 b 508 1003 189 894 286 1003 b 763 653 692 1003 763 840 b 426 78 763 392 651 78 b 319 104 388 78 353 89 b 421 336 361 157 397 232 l 553 940 b 486 958 536 951 511 958 b 367 869 435 958 381 935 l 243 288 b 201 175 232 240 218 203 b 94 213 165 196 131 213 z m 83 92 b 33 126 54 92 33 106 b 96 167 33 146 57 167 b 167 129 118 167 140 151 b 83 92 139 101 108 92 z "},"E":{"ha":675,"x_min":0,"x_max":0,"o":"m 190 793 b 301 588 190 714 225 638 b 58 264 147 540 58 399 b 321 -11 58 119 139 -11 b 686 126 444 -11 589 29 b 699 157 696 136 699 147 b 675 190 699 171 690 183 b 419 111 599 133 501 111 b 254 289 306 111 254 196 b 468 538 254 401 331 528 b 482 590 481 553 485 572 b 340 789 385 614 340 701 b 507 992 340 890 400 992 b 589 910 564 992 589 953 b 521 807 589 867 564 819 b 601 751 536 768 579 751 b 715 897 671 751 715 819 b 489 1069 715 986 650 1069 b 190 793 299 1069 190 929 z "},"F":{"ha":672,"x_min":0,"x_max":0,"o":"m 189 758 b 382 985 189 904 289 975 l 161 7 b 235 -11 176 -4 203 -11 b 354 78 286 -11 340 13 l 442 489 b 563 465 482 481 521 465 b 639 579 635 465 672 536 b 460 576 582 551 526 569 l 538 940 b 740 871 608 908 685 871 b 876 1081 840 871 907 956 b 429 1069 717 1010 583 1069 b 44 793 297 1069 44 1021 b 158 664 44 726 86 664 b 217 678 176 664 196 668 b 189 758 197 700 189 735 z "},"G":{"ha":794,"x_min":0,"x_max":0,"o":"m 349 -11 b 694 392 508 -11 672 106 b 735 375 714 390 726 383 b 635 508 776 433 731 508 b 363 508 529 508 446 463 b 467 351 317 449 369 351 b 610 381 517 351 563 369 b 426 118 597 207 506 118 b 231 418 286 118 231 254 b 478 961 231 701 357 961 b 492 792 569 961 563 833 b 572 736 507 753 550 736 b 497 1069 719 736 763 1069 b 35 394 243 1069 35 749 b 349 -11 35 181 131 -11 z "},"H":{"ha":933,"x_min":0,"x_max":0,"o":"m 944 126 b 957 157 953 136 957 147 b 933 190 957 171 949 183 b 792 121 901 163 836 121 b 746 224 754 121 731 143 l 918 1024 b 851 1042 900 1035 876 1042 b 732 953 800 1042 746 1018 l 658 608 b 447 597 599 603 518 597 l 526 965 l 539 965 b 588 1019 571 965 588 993 b 568 1056 588 1033 582 1047 b 275 1083 508 1022 390 1083 b 44 896 111 1083 44 983 b 157 764 44 826 86 764 b 217 778 176 764 196 768 b 189 858 200 797 189 828 b 361 994 189 924 235 994 l 368 994 l 144 7 b 218 -11 160 -4 186 -11 b 338 78 269 -11 324 13 l 428 503 b 644 539 494 504 585 518 l 571 190 b 703 -11 536 28 619 -11 b 944 126 783 -11 864 51 z "},"I":{"ha":532,"x_min":0,"x_max":0,"o":"m 361 994 l 368 994 l 144 7 b 218 -11 160 -4 186 -11 b 338 78 269 -11 324 13 l 526 965 l 539 965 b 588 1019 571 965 588 993 b 568 1056 588 1033 582 1047 b 275 1083 508 1022 390 1083 b 44 896 111 1083 44 983 b 157 764 44 826 86 764 b 217 778 176 764 196 768 b 189 858 200 797 189 828 b 361 994 189 924 235 994 z "},"J":{"ha":744,"x_min":0,"x_max":0,"o":"m 228 -199 b 135 -115 168 -199 135 -156 b 236 -18 135 -68 165 -18 b 301 -43 257 -18 278 -21 b 197 119 339 60 297 119 b 24 -76 88 119 24 22 b 229 -279 24 -178 85 -279 b 571 65 406 -279 522 -162 l 761 967 b 778 965 767 965 772 965 b 826 1019 810 965 826 993 b 807 1056 826 1033 821 1047 b 514 1083 747 1022 629 1083 b 283 896 350 1083 283 983 b 396 764 283 826 325 764 b 456 778 415 764 435 768 b 428 858 439 797 428 828 b 599 994 428 924 474 994 l 408 119 b 228 -199 356 -119 313 -199 z "},"K":{"ha":917,"x_min":0,"x_max":0,"o":"m 721 -11 b 938 158 853 -11 938 113 b 917 190 938 171 932 183 b 808 121 890 153 846 121 b 643 572 706 121 664 361 b 901 964 797 696 901 833 b 806 1047 901 1015 851 1047 b 754 1036 789 1047 769 1044 b 469 550 721 879 663 663 l 436 539 l 526 965 l 539 965 b 588 1019 571 965 588 993 b 568 1056 588 1033 582 1047 b 275 1083 508 1022 390 1083 b 44 896 111 1083 44 983 b 157 764 44 826 86 764 b 217 778 176 764 196 768 b 189 858 200 797 189 828 b 361 994 189 924 235 994 l 368 994 l 144 7 b 218 -11 160 -4 186 -11 b 338 78 269 -11 324 13 l 419 465 l 490 475 b 721 -11 507 257 561 -11 z "},"L":{"ha":714,"x_min":0,"x_max":0,"o":"m 551 969 b 600 1024 583 969 600 997 b 581 1060 600 1038 594 1051 b 288 1082 521 1026 403 1082 b 54 888 163 1083 54 1043 b 229 776 54 815 100 743 b 210 849 217 801 210 825 b 371 999 210 935 264 996 l 221 288 b 193 197 213 253 204 224 b 72 213 154 207 114 213 b 39 -8 -97 213 -131 -8 b 257 65 115 -8 192 11 b 485 -11 306 25 369 -11 b 738 157 619 -11 738 121 b 714 190 738 171 729 183 b 518 122 682 161 617 122 b 332 158 457 122 396 139 b 399 336 360 204 382 263 l 536 969 z m 65 96 b 74 167 -19 96 3 167 b 160 143 108 167 136 157 b 65 96 135 113 101 96 z "},"M":{"ha":1318,"x_min":0,"x_max":0,"o":"m 600 994 l 607 994 b 154 104 404 317 264 146 l 154 117 b 183 260 154 149 160 206 b 114 283 164 275 139 283 b -4 179 51 283 -4 260 b 115 -11 -4 56 46 -11 b 614 785 281 -11 426 186 l 607 622 l 557 7 b 624 -11 574 -4 599 -11 b 742 71 675 -11 717 7 l 1044 782 l 951 154 b 1090 -11 932 26 1014 -11 b 1329 126 1171 -11 1253 47 b 1342 157 1338 136 1342 147 b 1318 190 1342 171 1333 183 b 1176 121 1286 163 1221 121 b 1131 224 1139 121 1119 142 l 1244 1024 b 1168 1042 1228 1035 1193 1042 b 1049 953 1117 1042 1074 1015 l 726 226 l 776 965 l 778 965 b 826 1019 810 965 826 993 b 807 1056 826 1033 821 1047 b 514 1083 747 1022 629 1083 b 283 896 350 1083 283 983 b 396 764 283 826 325 764 b 456 778 415 764 435 768 b 428 858 439 797 428 828 b 600 994 428 924 474 994 z "},"N":{"ha":932,"x_min":0,"x_max":0,"o":"m 438 994 l 439 994 l 443 979 b 158 110 342 342 236 160 l 158 117 b 188 260 158 149 164 206 b 118 283 168 275 143 283 b 0 179 56 283 0 260 b 119 -11 0 56 50 -11 b 486 792 240 -11 372 136 l 660 35 b 747 -4 671 -11 706 -18 l 856 374 b 963 982 906 550 963 796 b 871 1097 963 1035 947 1097 b 757 1061 818 1097 782 1083 b 831 769 808 990 831 888 b 764 317 831 657 817 524 l 614 965 l 615 965 b 664 1019 647 965 664 993 b 644 1056 664 1033 658 1047 b 351 1083 585 1022 467 1083 b 121 896 188 1083 121 983 b 233 764 121 826 163 764 b 293 778 253 764 272 768 b 265 858 276 797 265 828 b 438 994 265 924 311 994 z "},"O":{"ha":736,"x_min":0,"x_max":0,"o":"m 483 961 b 624 710 561 961 624 875 b 344 165 624 343 465 165 b 200 425 243 165 200 282 b 483 961 200 656 315 961 z m 281 -11 b 749 711 572 -11 749 383 b 475 1069 749 904 667 1069 b 4 394 176 1069 4 699 b 281 -11 4 176 92 -11 z "},"P":{"ha":876,"x_min":0,"x_max":0,"o":"m 161 7 b 235 -11 176 -4 203 -11 b 354 78 286 -11 340 13 l 425 417 l 446 417 b 868 828 675 417 868 578 b 529 1069 868 958 774 1069 b 44 814 258 1069 44 978 b 157 682 44 744 86 682 b 217 696 176 682 196 686 b 189 776 200 715 189 740 b 501 1003 189 881 268 1003 b 697 817 642 1003 697 918 b 439 482 697 624 583 489 l 536 940 b 471 958 519 951 496 958 b 356 872 422 958 369 936 z "},"Q":{"ha":756,"x_min":0,"x_max":0,"o":"m 281 -11 b 292 -10 283 -11 288 -10 b 557 -207 356 -174 432 -207 b 743 -117 622 -207 703 -175 b 731 -50 756 -101 756 -67 b 614 -96 696 -75 656 -96 b 446 36 538 -96 490 -68 b 749 711 638 150 749 451 b 475 1069 749 904 667 1069 b 4 394 176 1069 4 699 b 281 -11 4 176 92 -11 z m 483 961 b 624 710 561 961 624 875 b 344 165 624 343 465 165 b 200 425 243 165 200 282 b 483 961 200 656 315 961 z "},"R":{"ha":950,"x_min":0,"x_max":0,"o":"m 721 -11 b 961 126 801 -11 888 49 b 974 157 969 136 974 147 b 950 190 974 171 965 183 b 808 121 918 161 853 121 b 653 479 721 121 678 296 b 868 828 781 558 868 701 b 529 1069 868 958 774 1069 b 44 814 258 1069 44 978 b 157 682 44 744 86 682 b 217 696 176 682 196 686 b 189 776 200 715 189 740 b 501 1003 189 881 268 1003 b 697 817 642 1003 697 918 b 440 482 697 671 583 493 l 538 940 b 472 958 521 951 497 958 b 357 872 424 958 371 936 l 161 7 b 235 -11 176 -4 203 -11 b 354 78 286 -11 340 13 l 426 417 l 446 417 b 494 419 463 417 479 418 b 721 -11 517 214 575 -11 z "},"S":{"ha":792,"x_min":0,"x_max":0,"o":"m 517 1069 b 224 799 347 1069 224 954 b 501 289 224 543 501 513 b 333 96 501 186 447 96 b 188 243 238 96 188 169 b 347 353 188 322 256 383 b 357 397 354 369 357 383 b 265 483 357 450 311 483 b 44 253 121 483 44 371 b 328 -11 44 124 135 -11 b 694 331 536 -11 694 115 b 404 824 694 569 404 625 b 535 992 404 913 449 992 b 619 903 593 992 619 949 b 549 793 619 857 593 807 b 629 738 564 754 607 738 b 742 874 700 738 742 801 b 517 1069 742 965 675 1069 z "},"T":{"ha":647,"x_min":0,"x_max":0,"o":"m 189 758 b 403 986 189 915 304 986 b 422 983 408 986 415 985 l 201 7 b 275 -11 217 -4 243 -11 b 394 78 326 -11 381 13 l 574 922 b 740 871 633 896 694 871 b 876 1081 840 871 907 956 b 429 1069 717 1010 583 1069 b 44 793 297 1069 44 1021 b 158 664 44 726 86 664 b 217 678 176 664 196 668 b 189 758 197 700 189 735 z "},"U":{"ha":892,"x_min":0,"x_max":0,"o":"m 361 994 l 363 994 l 246 442 b 394 -11 178 124 250 -11 b 926 990 685 -11 925 669 b 924 1044 926 1008 925 1026 b 824 1117 921 1076 893 1125 b 724 1063 779 1111 747 1092 b 772 857 763 1007 772 935 b 474 132 772 556 635 132 b 411 407 389 132 365 188 l 529 965 l 539 965 b 588 1019 571 965 588 993 b 568 1056 588 1033 582 1047 b 275 1083 508 1022 390 1083 b 44 896 111 1083 44 983 b 157 764 44 826 86 764 b 217 778 176 764 196 768 b 189 858 200 797 189 828 b 361 994 189 924 235 994 z "},"W":{"ha":1314,"x_min":0,"x_max":0,"o":"m 406 0 b 482 -18 422 -11 457 -18 b 600 71 533 -18 574 7 l 810 731 l 858 0 b 935 -18 875 -11 910 -18 b 1053 71 986 -18 1026 7 l 1185 374 b 1376 983 1261 550 1376 828 b 1281 1097 1376 1053 1349 1097 b 1175 1061 1242 1097 1197 1083 b 1121 439 1275 899 1190 613 l 1019 186 l 969 1026 b 904 1042 956 1036 926 1042 b 803 967 861 1042 821 1021 l 568 225 l 558 965 l 565 965 b 614 1019 597 965 614 993 b 594 1056 614 1033 608 1047 b 301 1083 535 1022 417 1083 b 71 896 138 1083 71 983 b 183 764 71 826 113 764 b 243 778 203 764 222 768 b 215 858 226 797 215 828 b 381 994 215 922 260 992 z "},"X":{"ha":861,"x_min":0,"x_max":0,"o":"m 669 -11 b 910 126 750 -11 836 49 b 922 157 918 136 922 147 b 899 190 922 171 914 183 b 757 121 867 161 801 121 b 704 178 728 121 711 142 l 629 539 b 904 1018 778 667 904 811 b 825 1097 904 1044 892 1097 b 733 1061 786 1097 758 1079 b 613 622 747 908 704 749 l 542 965 l 546 965 b 594 1019 578 965 594 993 b 575 1056 594 1033 589 1047 b 282 1083 515 1022 397 1083 b 51 896 118 1083 51 983 b 164 764 51 826 93 764 b 224 778 183 764 203 768 b 196 858 207 797 196 828 b 342 993 196 918 235 983 l 453 469 b 144 106 329 244 217 139 l 144 117 b 174 260 144 149 150 206 b 104 283 154 275 129 283 b -14 179 42 283 -14 260 b 106 -11 -14 56 36 -11 b 478 350 211 -11 346 117 l 528 117 b 669 -11 546 29 603 -11 z "},"Z":{"ha":661,"x_min":0,"x_max":0,"o":"m 432 -11 b 685 157 567 -11 685 121 b 661 190 685 171 676 183 b 465 122 629 161 564 122 b 288 156 406 122 347 138 b 361 274 314 189 338 228 l 704 954 b 767 1019 749 960 767 994 b 743 1056 767 1033 760 1050 b 674 1033 732 1044 703 1033 b 193 1083 497 1033 357 1083 b 65 968 103 1083 65 1029 b 101 883 65 940 76 911 b 511 943 218 969 354 939 l 158 243 b 135 200 150 226 143 213 b 22 213 99 207 61 213 b -122 86 -71 213 -122 146 b 0 -11 -122 19 -69 -11 b 203 68 60 -11 132 11 b 432 -11 251 28 314 -11 z m 24 167 b 101 147 54 167 79 158 b 13 92 69 106 42 92 b -39 126 -22 92 -39 108 b 24 167 -39 146 -15 167 z "},"b":{"ha":632,"x_min":0,"x_max":0,"o":"m 4 365 b 147 -11 -42 151 -4 -11 b 583 485 354 -11 583 249 b 410 701 583 618 517 701 b 219 593 354 701 290 676 l 285 915 b 218 992 296 968 268 992 b 43 893 143 992 43 925 b 64 850 43 882 44 868 b 104 831 86 876 113 868 z m 408 454 b 221 132 408 292 319 132 b 153 231 185 132 153 151 b 196 478 153 263 158 314 b 333 561 235 528 289 561 b 408 454 376 561 408 531 z "},"p":{"ha":661,"x_min":0,"x_max":0,"o":"m -158 -506 b -93 -524 -142 -517 -118 -524 b 19 -436 -43 -524 6 -500 l 115 25 b 211 -11 143 1 178 -11 b 600 472 449 -11 600 264 b 424 701 600 599 546 701 b 235 592 354 701 289 658 l 242 625 b 175 701 254 678 225 701 b 19 635 117 701 67 672 b 19 558 -8 613 1 569 b 47 575 32 569 40 575 b 61 540 60 575 67 563 z m 347 563 b 429 422 394 563 429 519 b 203 96 429 285 344 96 b 133 111 181 96 158 97 l 210 474 b 347 563 256 531 306 563 z "},"q":{"ha":683,"x_min":0,"x_max":0,"o":"m 633 683 b 568 701 617 694 593 701 b 476 661 533 701 499 690 b 335 707 442 692 396 707 b -15 222 142 707 -15 465 b 158 -11 -15 133 14 -11 b 346 100 226 -11 292 33 l 218 -506 b 283 -524 235 -517 258 -524 b 396 -436 333 -524 382 -500 z m 232 132 b 157 232 189 132 157 163 b 385 603 157 383 217 603 b 450 592 406 603 426 600 l 371 218 b 232 132 333 168 276 132 z "},"s":{"ha":533,"x_min":0,"x_max":0,"o":"m 131 -11 b 415 224 335 -11 415 89 b 188 515 415 400 188 368 b 268 628 188 590 231 628 b 331 553 301 628 331 604 b 307 478 331 525 321 494 b 363 458 325 465 344 460 b 460 572 414 456 460 494 b 285 707 460 663 403 707 b 47 493 124 707 47 604 b 276 192 47 285 276 297 b 167 81 276 124 219 81 b 79 172 122 81 79 108 b 108 260 79 206 90 239 b 53 279 93 274 75 279 b -65 172 -15 279 -56 229 b 131 -11 -81 79 -18 -11 z "},"v":{"ha":583,"x_min":0,"x_max":0,"o":"m 63 554 b 164 -11 13 393 17 -11 b 542 647 314 -11 542 329 b 429 801 542 749 483 800 b 336 694 383 803 339 767 b 422 493 394 668 422 586 b 247 133 422 363 353 217 b 242 625 189 247 206 454 b 175 701 254 678 225 701 b 19 635 117 701 67 672 b 19 558 -8 613 1 569 b 47 575 32 569 40 575 b 63 554 60 575 65 565 z "},"w":{"ha":929,"x_min":0,"x_max":0,"o":"m 418 614 b 247 133 372 365 332 217 b 208 343 219 188 208 261 b 242 625 208 435 222 535 b 175 701 253 678 225 701 b 0 603 100 701 0 635 b 21 560 0 592 1 578 b 47 575 29 569 39 575 b 63 554 57 575 67 568 b 33 318 44 497 33 408 b 164 -11 33 156 69 -11 b 403 257 238 -11 329 90 b 510 -11 411 119 438 -11 b 888 647 660 -11 888 329 b 775 801 888 749 829 800 b 682 694 729 803 685 767 b 768 493 740 668 768 586 b 593 133 768 363 699 217 b 551 342 564 196 551 267 b 600 683 551 446 574 561 b 535 701 585 694 558 701 b 418 614 485 701 431 678 z "},"z":{"ha":546,"x_min":0,"x_max":0,"o":"m 432 690 b 343 667 399 672 369 667 b 143 715 276 667 225 715 b 36 607 76 715 36 664 b 54 546 36 588 42 565 b 143 575 71 569 104 575 b 331 575 196 575 264 564 b 39 143 235 460 117 300 b -29 121 17 139 -6 132 b 51 -11 -58 51 -28 -11 b 126 43 79 -11 106 7 b 303 -11 194 19 253 -11 b 557 126 399 -11 488 53 b 569 157 565 136 569 147 b 546 190 569 171 561 183 b 372 93 506 142 435 93 b 207 126 315 93 261 111 b 522 596 281 279 403 474 b 432 690 493 647 471 671 z "}," ":{"ha":347,"x_min":0,"x_max":0,"o":""},"'":{"ha":183,"x_min":0,"x_max":0,"o":"m -28 749 b 7 739 -15 742 -4 739 b 68 788 32 739 53 756 l 183 1028 b 135 1042 169 1038 153 1042 b 28 944 93 1042 51 1014 z "},"(":{"ha":528,"x_min":0,"x_max":0,"o":"m 256 151 b 615 989 256 429 325 742 b 564 1049 611 1017 594 1036 b 88 199 226 840 88 501 b 308 -300 88 44 146 -171 b 376 -251 339 -293 363 -275 b 256 151 303 -150 256 6 z "},")":{"ha":514,"x_min":0,"x_max":0,"o":"m 276 597 b -83 -240 276 319 207 7 b -32 -300 -79 -268 -62 -287 b 444 550 306 -92 444 247 b 224 1049 444 704 386 919 b 156 1000 193 1042 169 1024 b 276 597 229 899 276 743 z "},"*":{"ha":676,"x_min":0,"x_max":0,"o":"m 122 869 l 229 778 l 138 719 b 135 600 75 681 97 618 l 267 688 l 251 615 b 333 531 236 546 296 517 l 365 688 l 431 629 b 544 663 483 583 538 622 l 438 754 l 529 813 b 532 932 592 851 569 914 l 399 844 l 415 918 b 333 1003 431 988 371 1017 l 300 844 l 236 903 b 122 869 183 949 129 910 z "},"+":{"ha":715,"x_min":0,"x_max":0,"o":"m 117 460 l 292 460 l 271 364 b 372 261 253 281 335 239 l 414 460 l 532 460 b 611 581 619 460 638 539 l 442 581 l 461 667 b 361 769 481 751 407 786 l 318 581 l 196 581 b 117 460 110 581 88 492 z "},",":{"ha":329,"x_min":0,"x_max":0,"o":"m -6 -200 b 218 69 126 -154 218 -31 b 128 163 218 122 185 163 b 26 71 74 163 33 121 b -29 -164 57 31 74 -75 b -6 -200 -39 -189 -21 -206 z "},"-":{"ha":465,"x_min":0,"x_max":0,"o":"m 99 340 b 264 308 161 340 206 308 b 385 410 338 308 385 360 b 368 460 385 428 378 444 b 292 439 343 444 318 439 b 135 451 243 439 193 451 b 11 363 57 451 11 410 b 29 313 11 346 17 329 b 99 340 43 329 63 340 z "},".":{"ha":361,"x_min":0,"x_max":0,"o":"m 26 64 b 118 -33 22 10 64 -33 b 221 64 172 -33 217 10 b 128 161 224 118 182 161 b 26 64 74 161 29 118 z "},"/":{"ha":533,"x_min":0,"x_max":0,"o":"m 535 942 b 481 1042 563 999 536 1042 l 0 89 b 54 -11 -25 39 6 -11 z "},"@":{"ha":903,"x_min":0,"x_max":0,"o":"m 533 165 b 900 538 743 165 900 361 b 500 900 900 725 788 900 b -50 378 125 900 -50 657 b 415 -62 -50 124 113 -62 b 711 35 575 -62 669 -21 b 682 122 731 60 736 110 b 410 25 635 68 522 25 b 93 368 192 25 93 171 b 483 831 93 626 235 831 b 767 532 690 831 767 706 b 594 256 767 393 693 256 b 563 328 568 256 550 271 l 629 644 b 583 657 618 653 601 657 b 507 614 554 657 522 644 b 418 663 493 643 465 663 b 293 607 374 663 333 643 b 186 326 222 540 186 426 b 299 165 186 264 206 165 b 442 261 353 165 401 204 b 533 165 443 186 488 165 z m 353 275 b 307 333 326 275 307 296 b 385 560 307 407 329 497 b 497 578 406 583 446 611 l 446 329 b 353 275 418 296 389 275 z "},"А":{"ha":949,"x_min":0,"x_max":0,"o":"m 960 126 b 972 157 968 136 972 147 b 949 190 972 171 964 183 b 807 121 917 163 851 121 b 761 224 769 121 744 143 l 919 965 l 925 965 b 974 1019 957 965 974 993 b 954 1056 974 1033 968 1047 b 494 1083 847 1021 676 1083 b 264 896 331 1083 264 983 b 376 764 264 826 306 764 b 436 778 396 764 415 768 b 408 858 419 797 408 828 b 581 994 408 924 454 994 l 608 994 b 156 104 406 317 265 146 l 156 117 b 185 260 156 149 161 206 b 115 283 165 275 140 283 b -3 179 53 283 -3 260 b 117 -11 -3 56 47 -11 b 469 379 236 -11 346 93 l 625 379 l 578 154 b 719 -11 551 28 640 -11 b 960 126 790 -11 882 47 z m 753 982 l 642 460 l 503 460 b 676 990 557 599 614 772 b 753 982 703 988 728 985 z "},"В":{"ha":865,"x_min":0,"x_max":0,"o":"m 657 851 b 457 564 657 739 571 599 l 538 940 b 471 958 521 951 496 958 b 351 869 419 958 365 935 l 193 122 b 129 167 171 135 150 149 b 74 94 90 154 74 125 b 354 -11 74 31 201 -11 b 803 385 619 -11 803 217 b 593 561 803 483 739 561 l 592 563 b 810 868 731 636 810 761 b 511 1069 810 1029 683 1069 b 44 814 294 1069 44 968 b 157 682 44 744 86 682 b 217 696 176 682 196 686 b 189 776 200 715 189 740 b 489 1004 189 915 353 1004 b 657 851 603 1004 657 958 z m 504 501 b 625 378 586 501 625 450 b 354 78 625 229 497 78 l 353 78 l 442 493 b 504 501 464 499 485 501 z "},"Е":{"ha":675,"x_min":0,"x_max":0,"o":"m 190 793 b 301 588 190 714 225 638 b 58 264 147 540 58 399 b 321 -11 58 119 139 -11 b 686 126 444 -11 589 29 b 699 157 696 136 699 147 b 675 190 699 171 690 183 b 419 111 599 133 501 111 b 254 289 306 111 254 196 b 468 538 254 401 331 528 b 482 590 481 553 485 572 b 340 789 385 614 340 701 b 507 992 340 890 400 992 b 589 910 564 992 589 953 b 521 807 589 867 564 819 b 601 751 536 768 579 751 b 715 897 671 751 715 819 b 489 1069 715 986 650 1069 b 190 793 299 1069 190 929 z "},"К":{"ha":917,"x_min":0,"x_max":0,"o":"m 721 -11 b 938 158 853 -11 938 113 b 917 190 938 171 932 183 b 808 121 890 153 846 121 b 643 572 706 121 664 361 b 901 964 797 696 901 833 b 806 1047 901 1015 851 1047 b 754 1036 789 1047 769 1044 b 469 550 721 879 663 663 l 436 539 l 526 965 l 539 965 b 588 1019 571 965 588 993 b 568 1056 588 1033 582 1047 b 275 1083 508 1022 390 1083 b 44 896 111 1083 44 983 b 157 764 44 826 86 764 b 217 778 176 764 196 768 b 189 858 200 797 189 828 b 361 994 189 924 235 994 l 368 994 l 144 7 b 218 -11 160 -4 186 -11 b 338 78 269 -11 324 13 l 419 465 l 490 475 b 721 -11 507 257 561 -11 z "},"Н":{"ha":933,"x_min":0,"x_max":0,"o":"m 944 126 b 957 157 953 136 957 147 b 933 190 957 171 949 183 b 792 121 901 163 836 121 b 746 224 754 121 731 143 l 918 1024 b 851 1042 900 1035 876 1042 b 732 953 800 1042 746 1018 l 658 608 b 447 597 599 603 518 597 l 526 965 l 539 965 b 588 1019 571 965 588 993 b 568 1056 588 1033 582 1047 b 275 1083 508 1022 390 1083 b 44 896 111 1083 44 983 b 157 764 44 826 86 764 b 217 778 176 764 196 768 b 189 858 200 797 189 828 b 361 994 189 924 235 994 l 368 994 l 144 7 b 218 -11 160 -4 186 -11 b 338 78 269 -11 324 13 l 428 503 b 644 539 494 504 585 518 l 571 190 b 703 -11 536 28 619 -11 b 944 126 783 -11 864 51 z "},"О":{"ha":881,"x_min":0,"x_max":0,"o":"m 593 961 b 733 710 671 961 733 875 b 454 165 733 343 575 165 b 310 425 353 165 310 282 b 593 961 310 656 425 961 z m 390 -11 b 858 711 682 -11 858 383 b 585 1069 858 904 776 1069 b 114 394 286 1069 114 699 b 390 -11 114 176 201 -11 z "},"Р":{"ha":876,"x_min":0,"x_max":0,"o":"m 161 7 b 235 -11 176 -4 203 -11 b 354 78 286 -11 340 13 l 425 417 l 446 417 b 868 828 675 417 868 578 b 529 1069 868 958 774 1069 b 44 814 258 1069 44 978 b 157 682 44 744 86 682 b 217 696 176 682 196 686 b 189 776 200 715 189 740 b 501 1003 189 881 268 1003 b 697 817 642 1003 697 918 b 439 482 697 624 583 489 l 536 940 b 471 958 519 951 496 958 b 356 872 422 958 369 936 z "},"С":{"ha":675,"x_min":0,"x_max":0,"o":"m 497 1069 b 35 394 243 1069 35 749 b 349 -11 35 181 131 -11 b 686 126 465 -11 588 28 b 699 157 696 136 699 147 b 675 190 699 171 690 183 b 426 118 583 139 500 118 b 231 418 286 118 231 254 b 478 975 231 708 357 975 b 496 807 586 975 579 842 b 578 751 511 768 553 751 b 690 893 646 751 690 819 b 497 1069 690 978 632 1069 z "},"Т":{"ha":1186,"x_min":0,"x_max":0,"o":"m 824 190 b 956 -11 789 28 872 -11 b 1197 126 1036 -11 1117 51 b 1210 157 1206 136 1210 147 b 1186 190 1210 171 1201 183 b 1044 121 1154 163 1089 121 b 999 224 1007 121 982 143 l 1146 906 b 1181 1094 1244 932 1261 1064 b 1017 1054 1142 1067 1078 1054 b 372 1071 864 1054 521 1071 b -29 804 228 1071 -29 1021 b 146 693 -29 732 17 658 b 126 765 131 718 126 742 b 290 969 126 883 206 953 l 72 7 b 146 -11 88 -4 114 -11 b 265 78 197 -11 251 13 l 456 969 b 636 951 515 965 576 958 l 422 7 b 496 -11 438 -4 464 -11 b 615 78 547 -11 601 13 l 797 932 b 976 910 861 924 921 915 z "},"Х":{"ha":861,"x_min":0,"x_max":0,"o":"m 669 -11 b 910 126 750 -11 836 49 b 922 157 918 136 922 147 b 899 190 922 171 914 183 b 757 121 867 161 801 121 b 704 178 728 121 711 142 l 629 539 b 904 1018 778 667 904 811 b 825 1097 904 1044 892 1097 b 733 1061 786 1097 758 1079 b 613 622 747 908 704 749 l 542 965 l 546 965 b 594 1019 578 965 594 993 b 575 1056 594 1033 589 1047 b 282 1083 515 1022 397 1083 b 51 896 118 1083 51 983 b 164 764 51 826 93 764 b 224 778 183 764 203 768 b 196 858 207 797 196 828 b 342 993 196 918 235 983 l 453 469 b 144 106 329 244 217 139 l 144 117 b 174 260 144 149 150 206 b 104 283 154 275 129 283 b -14 179 42 283 -14 260 b 106 -11 -14 56 36 -11 b 478 350 211 -11 346 117 l 528 117 b 669 -11 546 29 603 -11 z "},"р":{"ha":661,"x_min":0,"x_max":0,"o":"m -158 -506 b -93 -524 -142 -517 -118 -524 b 19 -436 -43 -524 6 -500 l 115 25 b 211 -11 143 1 178 -11 b 600 472 449 -11 600 264 b 424 701 600 599 546 701 b 235 592 354 701 289 658 l 242 625 b 175 701 254 678 225 701 b 19 635 117 701 67 672 b 19 558 -8 613 1 569 b 47 575 32 569 40 575 b 61 540 60 575 67 563 z m 347 563 b 429 422 394 563 429 519 b 203 96 429 285 344 96 b 133 111 181 96 158 97 l 210 474 b 347 563 256 531 306 563 z "},"Д":{"ha":960,"x_min":0,"x_max":0,"o":"m 94 213 b -50 86 1 213 -50 146 b 74 -11 -50 25 3 -11 b 263 50 132 -11 200 3 b 446 -11 311 17 369 -11 b 942 656 764 -11 942 347 b 535 1069 942 876 825 1069 b 44 814 206 1069 44 953 b 157 682 44 744 86 682 b 217 696 176 682 196 686 b 189 776 200 715 189 740 b 508 1003 189 894 286 1003 b 763 653 692 1003 763 840 b 426 78 763 392 651 78 b 319 104 388 78 353 89 b 421 336 361 157 397 232 l 553 940 b 486 958 536 951 511 958 b 367 869 435 958 381 935 l 243 288 b 201 175 232 240 218 203 b 94 213 165 196 131 213 z m 83 92 b 33 126 54 92 33 106 b 96 167 33 146 57 167 b 167 129 118 167 140 151 b 83 92 139 101 108 92 z "},"И":{"ha":975,"x_min":0,"x_max":0,"o":"m 613 190 b 744 -11 578 28 661 -11 b 986 126 825 -11 906 51 b 999 157 994 136 999 147 b 975 190 999 171 990 183 b 833 121 943 163 878 121 b 788 224 796 121 771 143 l 960 1024 b 893 1042 943 1035 918 1042 b 774 953 842 1042 807 1014 l 386 303 l 526 965 l 539 965 b 588 1019 571 965 588 993 b 568 1056 588 1033 582 1047 b 275 1083 508 1022 390 1083 b 44 896 111 1083 44 983 b 157 764 44 826 86 764 b 217 778 176 764 196 768 b 189 858 200 797 189 828 b 361 994 189 924 235 994 l 151 7 b 218 -11 168 -4 193 -11 b 338 78 269 -11 303 15 l 725 722 z "},"Л":{"ha":954,"x_min":0,"x_max":0,"o":"m 592 190 b 724 -11 557 28 640 -11 b 965 126 804 -11 885 51 b 978 157 974 136 978 147 b 954 190 978 171 969 183 b 813 121 922 163 857 121 b 767 224 775 121 750 143 l 925 965 b 974 1019 957 965 974 993 b 954 1056 974 1033 968 1047 b 494 1078 861 1022 676 1078 b 261 883 369 1078 261 1039 b 436 772 261 811 307 738 b 417 844 421 797 417 821 b 581 994 417 932 472 993 l 593 994 b 140 104 390 317 250 146 l 140 117 b 169 260 140 149 146 206 b 100 283 150 275 125 283 b -18 179 38 283 -18 260 b 101 -11 -18 56 32 -11 b 663 992 283 -11 443 231 b 758 982 694 989 728 985 z "},"М":{"ha":1314,"x_min":0,"x_max":0,"o":"m 596 994 l 603 994 b 150 104 400 317 260 146 l 150 117 b 179 260 150 149 156 206 b 110 283 160 275 135 283 b -8 179 47 283 -8 260 b 111 -11 -8 56 42 -11 b 610 785 276 -11 422 186 l 603 622 l 553 7 b 619 -11 569 -4 594 -11 b 738 71 671 -11 713 7 l 1040 782 l 947 154 b 1086 -11 928 26 1010 -11 b 1325 126 1167 -11 1249 47 b 1338 157 1333 136 1338 147 b 1314 190 1338 171 1329 183 b 1172 121 1282 163 1217 121 b 1126 224 1135 121 1115 142 l 1240 1024 b 1164 1042 1224 1035 1189 1042 b 1044 953 1113 1042 1069 1015 l 722 226 l 772 965 l 774 965 b 822 1019 806 965 822 993 b 803 1056 822 1033 817 1047 b 510 1083 743 1022 625 1083 b 279 896 346 1083 279 983 b 392 764 279 826 321 764 b 451 778 411 764 431 768 b 424 858 435 797 424 828 b 596 994 424 924 469 994 z "},"Б":{"ha":872,"x_min":0,"x_max":0,"o":"m 188 764 b 375 971 188 893 282 964 l 193 122 b 129 167 171 135 150 149 b 74 94 90 154 74 125 b 354 -11 74 31 201 -11 b 808 399 622 -11 808 225 b 581 608 808 483 763 608 b 461 586 546 608 507 601 l 539 947 b 754 886 621 922 690 886 b 867 1093 853 886 907 976 b 703 1053 828 1065 764 1053 b 433 1069 625 1053 507 1069 b 32 803 289 1069 32 1019 b 207 692 32 731 78 657 b 188 764 192 717 188 740 z m 510 515 b 631 392 592 515 631 464 b 354 78 631 236 500 78 l 353 78 l 444 507 b 510 515 467 513 489 515 z "},"Г":{"ha":663,"x_min":0,"x_max":0,"o":"m 238 -11 b 357 78 289 -11 343 13 l 542 947 b 764 886 626 919 699 879 b 876 1093 861 896 917 976 b 713 1053 838 1065 774 1053 b 443 1069 635 1053 517 1069 b 288 992 390 1069 288 1067 b 304 946 288 976 293 960 b 382 971 331 963 357 969 l 164 7 b 238 -11 179 -4 206 -11 z "},"П":{"ha":933,"x_min":0,"x_max":0,"o":"m 571 190 b 703 -11 536 28 619 -11 b 944 126 783 -11 864 51 b 957 157 953 136 957 147 b 933 190 957 171 949 183 b 792 121 901 163 836 121 b 746 224 754 121 729 143 l 892 900 b 946 1092 1007 913 1032 1060 b 782 1051 907 1064 843 1051 b 443 1068 707 1051 514 1068 b 42 801 299 1068 42 1018 b 217 690 42 729 88 656 b 197 763 201 715 197 739 b 361 967 197 881 276 950 l 144 7 b 218 -11 160 -4 186 -11 b 338 78 269 -11 324 13 l 525 960 b 725 921 592 949 663 933 z "},"У":{"ha":911,"x_min":0,"x_max":0,"o":"m 261 -15 b 983 1018 729 -15 967 669 b 904 1097 985 1044 971 1097 b 813 1061 865 1097 835 1083 b 819 965 818 1029 819 997 b 633 263 819 636 757 396 b 569 979 667 478 626 790 l 579 979 b 628 1033 611 979 628 1007 b 608 1069 628 1047 622 1061 b 315 1097 549 1036 431 1097 b 85 910 151 1097 85 997 b 197 778 85 840 126 778 b 257 792 217 778 236 782 b 229 872 240 811 229 842 b 360 1006 229 929 264 992 b 486 164 450 758 506 447 b 340 140 442 149 393 140 b 161 210 271 140 204 157 b 122 119 136 189 122 154 b 261 -15 122 54 167 -15 z "},"Ю":{"ha":1314,"x_min":0,"x_max":0,"o":"m 361 994 l 368 994 l 144 7 b 218 -11 160 -4 186 -11 b 338 78 269 -11 324 13 l 428 503 b 567 522 471 506 521 513 b 557 410 561 485 558 447 b 833 -17 533 161 621 -17 b 1303 632 1114 -17 1292 306 b 1025 1058 1313 881 1228 1058 b 582 603 800 1058 642 853 b 449 597 539 600 492 597 l 526 965 l 539 965 b 588 1019 571 965 588 993 b 568 1056 588 1033 582 1047 b 275 1083 508 1022 390 1083 b 44 896 111 1083 44 983 b 157 764 44 826 86 764 b 217 778 176 764 196 768 b 189 858 200 797 189 828 b 361 994 189 924 235 994 z m 760 360 b 1033 950 760 749 913 950 b 1176 690 1111 950 1176 865 b 897 160 1176 333 1018 160 b 760 360 821 160 760 228 z "},"Ч":{"ha":935,"x_min":0,"x_max":0,"o":"m 572 190 b 704 -11 535 29 621 -11 b 946 126 785 -11 865 51 b 958 157 954 136 958 147 b 935 190 958 171 950 183 b 793 121 903 163 838 121 b 747 224 756 121 729 144 l 939 1043 b 874 1061 925 1054 897 1061 b 757 974 825 1061 772 1038 l 661 569 b 532 542 615 551 565 542 b 486 682 486 542 457 561 l 550 965 l 554 965 b 603 1019 586 965 603 993 b 583 1056 603 1033 597 1047 b 290 1083 524 1022 406 1083 b 60 896 126 1083 60 983 b 172 764 60 826 101 764 b 232 778 192 764 211 768 b 204 858 215 797 204 828 b 376 994 204 924 250 994 b 394 993 382 994 389 994 l 328 726 b 471 426 279 529 308 426 b 643 490 524 426 585 450 z "},"э":{"ha":532,"x_min":0,"x_max":0,"o":"m 131 74 b 58 149 92 74 58 107 b 82 211 58 164 63 189 b 25 231 64 224 42 231 b -72 144 -26 231 -72 211 b 93 -11 -72 39 8 -11 b 483 500 251 -11 483 128 b 306 711 483 613 417 711 b 79 606 218 711 149 688 b 100 549 68 592 68 549 b 228 607 139 588 188 607 b 319 467 279 607 319 563 b 318 404 319 444 319 424 l 147 404 b 89 324 104 404 82 367 l 310 324 b 131 74 285 147 210 74 z "},"ц":{"ha":696,"x_min":0,"x_max":0,"o":"m 242 625 b 175 701 254 678 225 701 b 19 635 117 701 67 672 b 19 558 -8 613 1 569 b 47 575 32 569 40 575 b 61 540 60 575 67 563 l -4 256 b 126 -11 -28 151 -28 -11 b 329 146 206 -11 274 56 b 458 -11 322 24 390 -11 b 567 47 501 -11 543 14 b 271 -93 526 -126 317 -156 b 319 -289 194 -174 189 -289 b 639 168 451 -287 650 -154 b 589 189 625 183 608 192 b 500 224 550 103 475 88 l 597 683 b 532 701 581 694 557 701 b 415 614 482 701 429 678 l 332 221 b 204 149 294 176 253 149 b 157 231 163 149 144 174 z "},"щ":{"ha":1040,"x_min":0,"x_max":0,"o":"m 242 625 b 175 701 254 678 225 701 b 19 635 117 701 67 672 b 19 558 -8 613 1 569 b 47 575 32 569 40 575 b 61 540 60 575 67 563 l -4 256 b 126 -11 -28 151 -28 -11 b 329 144 204 -11 274 56 b 471 -11 332 64 365 -11 b 674 146 550 -11 618 56 b 803 -11 667 24 735 -11 b 911 47 846 -11 888 14 b 615 -93 871 -126 661 -156 b 664 -289 539 -174 533 -289 b 983 168 796 -287 994 -154 b 933 189 969 183 953 192 b 844 224 894 103 819 88 l 942 683 b 876 701 925 694 901 701 b 760 614 826 701 774 678 l 676 221 b 549 149 639 176 597 149 b 501 231 507 149 489 174 l 597 683 b 532 701 581 694 557 701 b 415 614 482 701 429 678 l 332 221 b 204 149 294 176 253 149 b 157 231 163 149 144 174 z "},"б":{"ha":544,"x_min":0,"x_max":0,"o":"m 279 972 b 146 814 150 972 146 883 b 346 661 199 778 288 732 b 300 665 332 664 317 665 b -42 226 100 665 -42 419 b 160 -11 -42 99 15 -11 b 489 478 367 -11 489 278 b 243 840 489 651 351 760 b 517 801 339 835 422 801 b 631 904 582 801 619 856 b 621 972 635 929 633 954 b 279 972 533 949 413 972 z m 406 504 b 218 142 406 369 339 142 b 136 268 161 142 136 197 b 331 588 136 401 211 588 b 392 582 349 588 369 588 b 406 504 400 558 406 532 z "},"Ц":{"ha":950,"x_min":0,"x_max":0,"o":"m 361 994 l 363 994 l 188 167 b 144 -24 82 146 61 7 b 308 17 183 4 247 17 b 703 0 461 17 554 0 b 804 56 742 0 782 21 b 501 -93 763 -125 547 -157 b 550 -289 425 -174 419 -289 b 875 168 682 -287 886 -154 b 825 189 863 183 844 192 b 725 97 806 140 776 99 l 935 1028 b 868 1046 918 1039 893 1046 b 749 957 817 1046 763 1022 l 564 103 b 356 150 468 113 414 135 l 529 965 l 539 965 b 588 1019 571 965 588 993 b 568 1056 588 1033 582 1047 b 275 1083 508 1022 390 1083 b 44 896 111 1083 44 983 b 157 764 44 826 86 764 b 217 778 176 764 196 768 b 189 858 200 797 189 828 b 361 994 189 924 235 994 z "},"Ш":{"ha":1176,"x_min":0,"x_max":0,"o":"m 897 1028 b 831 1046 881 1039 856 1046 b 711 957 779 1046 725 1022 l 535 138 b 357 160 471 146 411 154 l 529 965 l 539 965 b 588 1019 571 965 588 993 b 568 1056 588 1033 582 1047 b 275 1083 508 1022 390 1083 b 44 896 111 1083 44 983 b 157 764 44 826 86 764 b 217 778 176 764 196 768 b 189 858 200 797 189 828 b 361 994 189 924 235 994 l 363 994 l 188 167 b 144 -24 82 146 61 7 b 308 17 183 4 247 17 b 1015 0 461 17 867 0 l 1247 1028 b 1181 1046 1231 1039 1206 1046 b 1061 957 1129 1046 1075 1022 l 876 100 b 692 118 815 104 754 111 z "},"Щ":{"ha":1313,"x_min":0,"x_max":0,"o":"m 1247 1028 b 1181 1046 1231 1039 1206 1046 b 1061 957 1129 1046 1075 1022 l 876 100 b 692 118 815 104 754 111 l 897 1028 b 831 1046 881 1039 856 1046 b 711 957 779 1046 725 1022 l 535 138 b 357 160 471 146 411 154 l 529 965 l 539 965 b 588 1019 571 965 588 993 b 568 1056 588 1033 582 1047 b 275 1083 508 1022 390 1083 b 44 896 111 1083 44 983 b 157 764 44 826 86 764 b 217 778 176 764 196 768 b 189 858 200 797 189 828 b 361 994 189 924 235 994 l 363 994 l 188 167 b 144 -24 82 146 61 7 b 308 17 183 4 247 17 b 1015 0 461 17 867 0 b 1117 56 1054 0 1094 21 b 814 -93 1075 -125 860 -157 b 863 -289 738 -174 732 -289 b 1188 168 994 -287 1199 -154 b 1138 189 1175 183 1157 192 b 1038 97 1118 140 1089 99 z "},"З":{"ha":767,"x_min":0,"x_max":0,"o":"m 540 849 b 307 568 540 731 490 575 b 297 500 293 546 289 521 b 517 349 446 500 517 475 b 303 79 517 174 397 79 b 188 208 240 79 188 121 b 206 276 188 231 192 256 b 147 307 194 296 165 307 b 32 183 64 307 32 243 b 286 -11 32 51 149 -11 b 696 357 471 -11 696 136 b 463 551 696 494 607 554 b 706 854 631 618 706 761 b 463 1069 706 1006 589 1069 b 194 875 356 1069 194 1026 b 286 778 194 814 238 778 b 347 799 307 778 328 785 b 326 875 333 824 326 850 b 431 981 326 932 361 981 b 540 849 485 981 540 943 z "},"Я":{"ha":840,"x_min":0,"x_max":0,"o":"m 489 190 b 621 -11 454 28 538 -11 b 863 126 701 -11 782 51 b 875 157 871 136 875 147 b 851 190 875 171 867 183 b 710 121 819 163 754 121 b 664 224 672 121 647 143 l 824 969 b 914 838 864 944 890 903 b 986 913 957 847 986 881 b 681 1069 986 1044 775 1069 b 224 706 431 1069 224 951 b 399 486 224 610 275 525 b 122 104 286 219 197 132 l 122 117 b 151 260 122 149 128 206 b 82 283 132 275 107 283 b -36 179 19 283 -36 260 b 83 -11 -36 56 14 -11 b 474 469 215 -11 335 114 b 546 464 496 467 519 464 z m 394 717 b 660 1001 394 904 513 999 l 561 532 b 394 717 442 543 394 622 z "},"˘":{"ha":414,"x_min":0,"x_max":0,"o":"m 400 894 b 350 942 406 932 375 946 b 219 829 322 865 265 829 b 156 892 183 829 156 850 b 165 933 156 908 158 921 b 110 947 146 944 132 947 b -7 829 33 947 -7 890 b 135 694 -7 763 38 694 b 400 894 283 694 390 796 z "},"Й":{"ha":975,"x_min":0,"x_max":0,"o":"m 613 190 b 744 -11 578 28 661 -11 b 986 126 825 -11 906 51 b 999 157 994 136 999 147 b 975 190 999 171 990 183 b 833 121 943 163 878 121 b 788 224 796 121 771 143 l 960 1024 b 893 1042 943 1035 918 1042 b 774 953 842 1042 807 1014 l 386 303 l 526 965 l 539 965 b 588 1019 571 965 588 993 b 568 1056 588 1033 582 1047 b 275 1083 508 1022 390 1083 b 44 896 111 1083 44 983 b 157 764 44 826 86 764 b 217 778 176 764 196 768 b 189 858 200 797 189 828 b 361 994 189 924 235 994 l 151 7 b 218 -11 168 -4 193 -11 b 338 78 269 -11 303 15 l 725 722 z m 921 1269 b 871 1317 926 1307 896 1321 b 740 1204 843 1240 786 1204 b 676 1267 704 1204 676 1225 b 686 1308 676 1283 679 1296 b 631 1322 667 1319 653 1322 b 514 1204 554 1322 514 1265 b 656 1069 514 1138 558 1069 b 921 1269 804 1069 911 1171 z "},"ъ":{"ha":531,"x_min":0,"x_max":0,"o":"m 343 692 b 110 715 229 660 178 715 b 3 607 43 715 3 664 b 21 546 3 588 8 565 b 228 583 79 588 151 572 b -11 154 110 461 -11 292 b 153 -11 -11 40 63 -11 b 461 311 289 -11 461 113 b 344 457 461 418 410 457 b 208 411 293 457 250 438 b 363 576 244 464 296 518 b 381 618 375 588 381 603 b 343 692 381 651 368 682 z m 160 321 b 240 353 186 343 215 353 b 317 271 296 353 317 317 b 207 99 317 169 256 99 b 142 219 172 99 142 135 b 160 321 142 254 147 288 z "},"ф":{"ha":967,"x_min":0,"x_max":0,"o":"m 306 38 b 94 -410 268 -137 210 -410 b 56 -344 72 -410 56 -392 b 79 -282 56 -329 60 -304 b 22 -262 61 -269 39 -262 b -75 -349 -29 -262 -75 -282 b 90 -504 -75 -454 6 -504 b 468 17 257 -504 388 -372 l 476 61 b 588 -11 497 19 532 -11 b 765 71 651 -11 710 18 b 918 471 867 167 918 328 b 758 701 918 560 892 701 b 596 622 700 701 642 672 l 619 736 b 738 933 644 851 674 933 b 789 893 772 933 789 919 b 850 947 824 886 850 914 b 744 1032 850 986 821 1032 b 453 744 613 1032 492 928 l 429 633 b 321 701 408 672 374 701 b 143 622 257 701 199 675 b -10 222 42 526 -10 365 b 150 -11 -10 133 17 -11 b 311 68 207 -11 265 18 z m 667 572 b 746 461 717 572 746 538 b 553 104 746 351 710 104 b 497 156 518 104 507 122 l 574 521 b 667 572 617 564 638 572 z m 242 121 b 163 232 192 121 163 156 b 356 589 163 342 199 589 b 410 540 389 589 400 572 l 333 171 b 242 121 290 129 271 121 z "},"Ь":{"ha":863,"x_min":0,"x_max":0,"o":"m 375 994 l 381 994 l 215 225 b 808 399 122 -206 808 17 b 581 608 808 483 763 608 b 461 586 546 608 507 601 l 543 965 l 553 965 b 601 1019 585 965 601 993 b 582 1056 601 1033 596 1047 b 289 1083 522 1022 404 1083 b 58 896 125 1083 58 983 b 171 764 58 826 100 764 b 231 778 190 764 210 768 b 203 858 214 797 203 828 b 375 994 203 924 249 994 z m 374 171 l 444 507 b 510 515 467 513 489 515 b 631 392 592 515 638 464 b 374 171 601 63 340 19 z "},"Ы":{"ha":1251,"x_min":0,"x_max":0,"o":"m 374 994 l 381 994 l 193 122 b 129 167 171 135 150 149 b 74 94 90 154 74 125 b 354 -11 74 31 201 -11 b 808 399 622 -11 808 225 b 747 560 808 449 794 514 b 1029 865 846 642 944 750 l 889 190 b 1021 -11 854 28 938 -11 b 1263 126 1101 -11 1182 51 b 1275 157 1271 136 1275 147 b 1251 190 1275 171 1267 183 b 1110 121 1219 163 1154 121 b 1064 224 1072 121 1047 143 l 1238 1038 b 1171 1056 1221 1049 1196 1056 b 1067 1006 1119 1056 1088 1035 b 683 599 961 860 824 701 b 589 614 657 608 626 614 b 483 538 519 614 483 581 b 499 493 483 521 488 506 b 611 506 539 494 576 499 b 354 78 686 332 546 78 l 353 78 l 543 965 l 551 965 b 600 1019 583 965 600 993 b 581 1056 600 1033 594 1047 b 288 1083 521 1022 403 1083 b 57 896 124 1083 57 983 b 169 764 57 826 99 764 b 229 778 189 764 208 768 b 201 858 213 797 201 828 b 374 994 201 924 247 994 z "},"Ъ":{"ha":863,"x_min":0,"x_max":0,"o":"m 297 994 b 379 988 324 994 353 992 l 193 122 b 129 167 172 135 150 149 b 74 94 90 154 74 125 b 354 -11 74 31 201 -11 b 808 399 622 -11 808 225 b 581 608 808 483 763 608 b 461 586 546 608 507 601 l 543 965 l 544 965 b 593 1019 576 965 593 993 b 574 1056 593 1033 588 1047 b 211 1083 500 1022 354 1083 b -19 896 47 1083 -19 983 b 93 764 -19 826 22 764 b 153 778 113 764 132 768 b 125 858 136 797 125 828 b 297 994 125 924 171 994 z m 510 515 b 631 392 592 515 631 464 b 354 78 631 236 500 78 l 353 78 l 444 507 b 510 515 467 513 489 515 z "},"Э":{"ha":772,"x_min":0,"x_max":0,"o":"m 540 492 l 550 492 b 303 79 518 267 435 79 b 188 208 240 79 188 121 b 206 276 188 231 192 256 b 147 307 194 296 165 307 b 32 183 64 307 32 243 b 286 -11 32 51 149 -11 b 749 701 583 -11 749 342 b 457 1069 749 922 664 1069 b 189 875 350 1069 189 1026 b 272 776 189 824 222 776 b 342 799 294 776 322 785 b 319 889 325 828 319 851 b 425 981 319 944 372 981 b 565 704 522 981 565 869 b 558 568 565 658 563 614 b 514 576 546 574 531 576 b 296 576 429 576 363 543 b 372 463 263 533 300 463 b 540 492 429 463 482 492 z "},"Ф":{"ha":1004,"x_min":0,"x_max":0,"o":"m 503 1024 b 369 1100 431 1025 369 1035 b 386 1171 369 1118 375 1142 b 326 1185 365 1181 346 1185 b 226 1069 268 1185 226 1136 b 417 935 226 1003 278 935 b 497 944 443 935 471 939 l 482 875 l 469 875 b -22 304 171 875 -22 558 b 282 -11 -22 132 71 -11 l 293 -11 l 268 -132 b 335 -150 285 -143 310 -150 b 454 -61 386 -150 440 -126 l 464 -11 l 479 -11 b 971 560 778 -11 971 306 b 667 875 971 732 878 875 l 651 875 l 674 979 b 710 963 689 978 699 972 b 729 1003 724 971 729 989 b 681 1053 729 1032 713 1053 b 503 1024 639 1053 567 1024 z m 639 804 b 799 539 750 804 799 683 b 479 60 799 326 675 60 l 475 60 l 632 804 z m 150 325 b 469 804 150 538 274 804 l 472 804 l 314 60 l 310 60 b 150 325 199 60 150 181 z "},"Ж":{"ha":1497,"x_min":0,"x_max":0,"o":"m 1274 119 b 1347 967 964 119 1113 967 b 1361 781 1439 967 1432 822 b 1442 725 1376 742 1419 725 b 1367 1058 1589 725 1632 1058 b 1028 758 1217 1058 1100 928 l 865 475 l 985 1038 b 918 1056 967 1049 943 1056 b 799 967 867 1056 813 1032 l 743 708 l 610 472 b 635 699 626 547 635 625 b 410 1058 635 919 564 1058 b 168 882 313 1058 213 996 b 204 811 157 854 168 817 b 385 964 247 904 307 964 b 485 697 454 964 485 860 b 242 78 485 354 390 78 b 154 201 185 78 154 126 b 172 269 154 224 160 249 b 114 300 161 289 132 300 b -1 176 31 300 -1 236 b 218 -11 -1 22 97 -11 b 550 276 365 -11 479 111 l 551 276 l 711 558 l 594 7 b 661 -11 610 -4 636 -11 b 781 78 713 -11 767 13 l 835 336 l 968 567 b 946 357 953 496 946 424 b 1199 -11 946 156 1018 -11 b 1508 126 1300 -11 1414 36 b 1521 157 1518 135 1521 147 b 1497 190 1521 171 1513 183 b 1274 119 1451 161 1351 119 z "},"V":{"ha":931,"x_min":0,"x_max":0,"o":"m 404 0 b 481 -18 421 -11 456 -18 b 596 68 532 -18 563 8 l 758 356 b 1017 1014 863 542 1017 810 b 925 1097 1017 1046 996 1097 b 819 1056 881 1097 846 1081 b 701 428 901 885 789 593 l 569 178 l 558 965 l 565 965 b 614 1019 597 965 614 993 b 594 1056 614 1033 608 1047 b 301 1083 535 1022 417 1083 b 71 896 138 1083 71 983 b 183 764 71 826 113 764 b 243 778 203 764 222 768 b 215 858 226 797 215 828 b 381 994 215 922 260 992 z "},"Y":{"ha":903,"x_min":0,"x_max":0,"o":"m 715 426 b 1001 1018 842 586 985 829 b 922 1097 1004 1044 989 1097 b 831 1061 883 1097 853 1083 b 690 528 860 869 810 703 l 585 965 l 589 965 b 638 1019 621 965 638 993 b 618 1056 638 1033 632 1047 b 325 1083 558 1022 440 1083 b 94 896 161 1083 94 983 b 207 764 94 826 136 764 b 267 778 226 764 246 768 b 239 858 250 797 239 828 b 382 993 239 918 278 982 l 526 429 l 435 10 b 510 -11 454 -3 481 -11 b 643 89 567 -11 628 15 z "},"¨":{"ha":563,"x_min":0,"x_max":0,"o":"m 74 892 b 160 806 74 843 111 806 b 246 892 208 806 246 843 b 160 978 246 940 208 978 b 74 892 111 978 74 940 z m 347 892 b 433 806 347 843 386 806 b 519 892 482 806 519 843 b 433 978 519 940 482 978 b 347 892 386 978 347 940 z "},"ё":{"ha":576,"x_min":0,"x_max":0,"o":"m 492 574 b 333 707 492 636 460 707 b -15 238 104 707 -15 418 b 221 -11 -15 67 90 -11 b 613 213 356 -11 517 72 b 578 260 628 238 614 267 b 290 110 518 181 390 110 b 161 213 226 110 175 138 b 492 574 429 361 492 456 z m 343 599 b 383 544 367 599 383 576 b 157 272 383 454 292 357 b 343 599 161 369 206 599 z m 161 892 b 247 806 161 843 199 806 b 333 892 296 806 333 843 b 247 978 333 940 296 978 b 161 892 199 978 161 940 z m 435 892 b 521 806 435 843 474 806 b 607 892 569 806 607 843 b 521 978 607 940 569 978 b 435 892 474 978 435 940 z "},"Ё":{"ha":675,"x_min":0,"x_max":0,"o":"m 190 793 b 301 588 190 714 225 638 b 58 264 147 540 58 399 b 321 -11 58 119 139 -11 b 686 126 444 -11 589 29 b 699 157 696 136 699 147 b 675 190 699 171 690 183 b 419 111 599 133 501 111 b 254 289 306 111 254 196 b 468 538 254 401 331 528 b 482 590 481 553 485 572 b 340 789 385 614 340 701 b 507 992 340 890 400 992 b 589 910 564 992 589 953 b 521 807 589 867 564 819 b 601 751 536 768 579 751 b 715 897 671 751 715 819 b 489 1069 715 986 650 1069 b 190 793 299 1069 190 929 z m 308 1197 b 394 1111 308 1149 346 1111 b 481 1197 443 1111 481 1149 b 394 1283 481 1246 443 1283 b 308 1197 346 1283 308 1246 z m 582 1197 b 668 1111 582 1149 621 1111 b 754 1197 717 1111 754 1149 b 668 1283 754 1246 717 1283 b 582 1197 621 1283 582 1246 z "},"a":{"ha":728,"x_min":0,"x_max":0,"o":"m 335 707 b -15 222 142 707 -15 465 b 158 -11 -15 133 14 -11 b 369 129 238 -11 311 47 b 499 -11 368 19 433 -11 b 739 126 574 -11 674 53 b 751 157 747 136 751 147 b 728 190 751 171 743 183 b 582 121 693 156 633 121 b 540 224 546 121 524 146 l 638 683 b 572 701 621 694 597 701 b 478 661 538 701 501 689 b 335 707 443 692 397 707 z m 372 219 b 232 132 335 168 276 132 b 157 232 189 132 157 163 b 385 603 157 383 217 603 b 450 592 406 603 426 600 z "},"c":{"ha":576,"x_min":0,"x_max":0,"o":"m 613 213 b 578 260 628 238 614 267 b 290 110 518 181 390 110 b 157 260 215 110 157 150 b 325 608 157 460 247 608 b 376 568 360 608 376 594 b 354 478 376 549 369 511 b 410 458 369 464 392 458 b 507 572 461 458 507 494 b 339 707 507 663 451 707 b -15 238 131 707 -15 451 b 221 -11 -15 67 90 -11 b 613 213 356 -11 517 72 z "},"d":{"ha":725,"x_min":0,"x_max":0,"o":"m 496 -11 b 736 126 571 -11 671 53 b 749 157 744 136 749 147 b 725 190 749 171 740 183 b 579 121 690 156 631 121 b 538 224 543 121 521 146 l 683 915 b 617 992 694 968 667 992 b 442 893 542 992 442 925 b 463 850 442 882 443 868 b 503 831 485 876 511 868 l 468 668 b 335 707 435 694 392 707 b -15 222 142 707 -15 465 b 158 -11 -15 133 14 -11 b 369 129 238 -11 311 47 b 496 -11 368 19 431 -11 z m 372 219 b 232 132 335 168 276 132 b 157 232 189 132 157 163 b 385 603 157 383 217 603 b 451 590 406 603 428 599 l 372 218 z "},"e":{"ha":576,"x_min":0,"x_max":0,"o":"m 492 574 b 333 707 492 636 460 707 b -15 238 104 707 -15 418 b 221 -11 -15 67 90 -11 b 613 213 356 -11 517 72 b 578 260 628 238 614 267 b 290 110 518 181 390 110 b 161 213 226 110 175 138 b 492 574 429 361 492 456 z m 343 599 b 383 544 367 599 383 576 b 157 272 383 454 292 357 b 343 599 161 369 206 599 z "},"g":{"ha":693,"x_min":0,"x_max":0,"o":"m 708 128 b 707 197 732 149 728 179 b 508 76 658 156 585 114 b 521 133 513 94 517 114 l 638 683 b 572 701 621 694 597 701 b 476 661 538 701 500 689 b 335 707 442 692 397 707 b -15 222 142 707 -15 465 b 158 -11 -15 133 14 -11 b 361 118 233 -11 304 42 b 331 10 350 79 340 44 b -74 -364 143 -60 -74 -192 b 90 -535 -74 -479 6 -535 b 490 -3 331 -535 428 -261 b 708 128 589 43 683 106 z m 372 219 b 232 132 335 168 276 132 b 157 232 189 132 157 163 b 385 603 157 383 217 603 b 450 592 406 603 426 600 z m 78 -411 b 21 -346 60 -411 21 -394 b 301 -87 21 -253 149 -149 b 78 -411 231 -315 174 -411 z "},"h":{"ha":661,"x_min":0,"x_max":0,"o":"m 421 -11 b 672 126 514 -11 607 53 b 685 157 681 136 685 147 b 661 190 685 171 676 183 b 515 121 626 156 567 121 b 478 178 488 121 469 138 l 546 497 b 415 701 581 661 485 701 b 231 575 344 701 283 650 l 303 915 b 236 992 314 968 286 992 b 61 893 161 992 61 925 b 82 850 61 882 63 868 b 122 831 104 876 131 868 l -54 3 b 4 -11 -37 -8 -21 -11 b 121 76 54 -11 107 13 l 208 471 b 338 544 246 515 288 544 b 371 463 383 544 381 507 l 313 186 b 421 -11 278 24 351 -11 z "},"i":{"ha":344,"x_min":0,"x_max":0,"o":"m 107 881 b 193 783 99 826 139 783 b 301 881 247 783 293 826 b 213 978 307 935 267 978 b 107 881 158 978 113 935 z m -19 154 b 104 -11 -46 28 35 -11 b 356 126 197 -11 290 53 b 368 157 364 136 368 147 b 344 190 368 171 360 183 b 199 121 310 156 250 121 b 157 224 163 121 140 146 l 242 625 b 175 701 253 678 225 701 b 19 635 117 701 67 672 b 19 558 -8 613 1 569 b 47 575 32 569 40 575 b 61 540 60 575 65 563 z "},"j":{"ha":318,"x_min":0,"x_max":0,"o":"m 242 625 b 175 701 253 678 225 701 b 19 635 117 701 67 672 b 19 558 -8 613 1 569 b 47 575 32 569 40 575 b 61 540 60 575 65 563 l -24 147 b -58 -1 -35 93 -46 43 b -476 -364 -287 -104 -476 -187 b -308 -535 -476 -479 -386 -535 b 106 -3 -61 -535 42 -261 b 324 128 204 43 299 106 b 322 197 347 149 343 179 b 124 76 274 156 200 114 b 136 133 128 94 132 114 z m -307 -411 b -364 -346 -325 -411 -364 -394 b -82 -92 -364 -240 -247 -174 b -307 -411 -146 -311 -214 -411 z m 110 881 b 201 783 106 826 147 783 b 304 881 256 783 300 826 b 211 978 307 935 265 978 b 110 881 157 978 113 935 z "},"k":{"ha":593,"x_min":0,"x_max":0,"o":"m 301 915 b 235 992 311 968 285 992 b 79 925 176 992 126 963 b 79 849 51 903 61 860 b 107 865 92 860 100 865 b 121 831 119 865 126 853 l -53 7 b 13 -11 -36 -4 -12 -11 b 122 76 60 -11 110 13 l 172 311 l 204 319 b 400 -11 225 211 261 -11 b 604 126 458 -11 554 65 b 617 157 613 136 617 147 b 593 190 617 171 608 183 b 499 132 557 157 526 132 b 343 361 403 132 363 281 b 517 597 431 403 518 486 b 439 701 517 672 492 701 b 331 638 390 701 349 675 b 350 551 344 617 350 590 b 215 390 350 468 304 417 l 188 383 z "},"l":{"ha":449,"x_min":0,"x_max":0,"o":"m 486 215 b 453 268 496 242 479 272 b 239 124 426 192 315 124 b 164 224 190 124 154 151 b 171 275 165 240 168 258 b 440 879 350 549 440 771 b 329 992 440 951 394 992 b -10 194 147 992 54 697 b 143 -11 -28 49 46 -11 b 486 215 271 -11 438 89 z m 339 900 b 363 869 354 900 363 893 b 189 399 363 822 311 625 b 339 900 236 692 293 900 z "},"m":{"ha":990,"x_min":0,"x_max":0,"o":"m 242 625 b 175 701 254 678 225 701 b 19 635 117 701 67 672 b 19 558 -8 613 1 569 b 47 575 32 569 40 575 b 61 540 60 575 67 563 l -53 7 b 13 -11 -36 -4 -12 -11 b 129 76 63 -11 115 13 l 214 472 b 342 544 251 517 292 544 b 375 463 388 544 385 507 l 278 7 b 343 -11 294 -4 318 -11 b 460 76 393 -11 446 13 l 546 481 b 667 544 582 519 619 544 b 700 463 713 544 711 507 l 642 186 b 750 -11 607 24 681 -11 b 1001 126 843 -11 936 53 b 1014 157 1010 136 1014 147 b 990 190 1014 171 1006 183 b 844 121 956 156 896 121 b 807 178 817 121 799 138 l 875 497 b 758 701 911 660 821 701 b 550 558 678 701 608 642 b 433 701 554 657 490 701 b 228 563 354 701 285 644 z "},"n":{"ha":665,"x_min":0,"x_max":0,"o":"m 19 558 b 47 575 32 569 40 575 b 61 540 60 575 67 563 l -53 7 b 13 -11 -36 -4 -12 -11 b 129 76 63 -11 115 13 l 214 472 b 338 544 244 510 300 544 b 375 463 368 544 388 521 l 317 186 b 425 -11 282 24 356 -11 b 676 126 518 -11 611 53 b 689 157 685 136 689 147 b 665 190 689 171 681 183 b 519 121 631 156 571 121 b 482 178 492 121 474 138 l 550 497 b 456 701 582 643 529 701 b 228 563 375 701 286 646 l 242 625 b 175 701 254 678 225 701 b 19 635 117 701 67 672 b 19 558 -8 613 1 569 z "},"r":{"ha":515,"x_min":0,"x_max":0,"o":"m 242 625 b 175 701 253 678 225 701 b 19 635 117 701 67 672 b 19 558 -8 613 1 569 b 47 575 32 569 40 575 b 61 540 60 575 65 563 l -53 7 b 13 -11 -36 -4 -12 -11 b 129 76 63 -11 115 13 l 146 161 b 328 544 217 482 282 544 b 371 510 357 544 371 529 b 356 467 371 493 365 475 b 396 461 368 463 383 461 b 507 592 468 461 507 529 b 406 701 507 649 472 701 b 226 550 342 701 282 663 z "},"t":{"ha":349,"x_min":0,"x_max":0,"o":"m 304 614 b 363 694 347 614 369 650 l 261 694 l 300 878 b 235 896 283 889 260 896 b 118 808 185 896 132 872 l 93 694 l 65 694 b 7 614 22 694 0 658 l 76 614 l -12 194 b 96 -11 -44 42 11 -11 b 360 126 189 -11 294 53 b 372 157 368 136 372 147 b 349 190 372 171 364 183 b 203 121 314 156 254 121 b 161 224 167 121 144 146 l 243 614 z "},"u":{"ha":688,"x_min":0,"x_max":0,"o":"m -4 256 b 126 -11 -28 151 -28 -11 b 329 146 206 -11 274 56 b 458 -11 322 24 390 -11 b 699 126 533 -11 633 53 b 711 157 707 136 711 147 b 688 190 711 171 703 183 b 542 121 653 156 593 121 b 500 224 506 121 483 146 l 597 683 b 532 701 581 694 557 701 b 415 614 482 701 429 678 l 332 221 b 204 149 294 176 253 149 b 157 231 163 149 144 174 l 242 625 b 175 701 254 678 225 701 b 19 635 117 701 67 672 b 19 558 -8 613 1 569 b 47 575 32 569 40 575 b 61 540 60 575 67 563 z "},"x":{"ha":667,"x_min":0,"x_max":0,"o":"m 438 -11 b 678 126 513 -11 613 53 b 690 157 686 136 690 147 b 667 190 690 171 682 183 b 521 121 632 156 572 121 b 429 253 460 121 438 188 l 417 351 b 644 647 554 469 628 551 b 532 801 665 772 592 801 b 439 694 486 801 442 767 b 514 629 494 696 514 660 b 407 432 514 572 458 492 l 394 531 b 244 707 379 653 340 707 b 96 635 176 707 117 653 b 96 558 69 610 76 576 b 232 550 169 624 226 600 l 261 315 b 61 101 174 174 115 132 b 85 211 61 129 67 171 b 28 231 67 224 44 231 b -69 144 -24 231 -69 211 b 29 -11 -69 43 -28 -11 b 274 206 110 -11 206 107 b 438 -11 300 33 356 -11 z "},"y":{"ha":638,"x_min":0,"x_max":0,"o":"m -4 256 b 114 -10 -32 126 -24 -10 b 300 104 183 -10 246 36 b 271 -1 289 67 281 32 b -149 -364 40 -104 -149 -187 b 19 -535 -149 -479 -58 -535 b 433 -3 267 -535 369 -261 b 651 128 532 43 626 106 b 650 197 675 149 671 179 b 451 76 601 156 528 114 b 464 133 456 94 460 114 l 582 683 b 517 701 565 694 542 701 b 400 614 467 701 414 678 l 310 199 b 203 149 278 168 243 149 b 156 225 157 149 146 182 l 242 625 b 175 701 254 678 225 701 b 19 635 117 701 67 672 b 19 558 -8 613 1 569 b 47 575 32 569 40 575 b 61 540 60 575 67 563 z m 21 -411 b -36 -346 3 -411 -36 -394 b 243 -93 -36 -240 78 -174 b 21 -411 172 -317 117 -411 z "},"а":{"ha":728,"x_min":0,"x_max":0,"o":"m 335 707 b -15 222 142 707 -15 465 b 158 -11 -15 133 14 -11 b 369 129 238 -11 311 47 b 499 -11 368 19 433 -11 b 739 126 574 -11 674 53 b 751 157 747 136 751 147 b 728 190 751 171 743 183 b 582 121 693 156 633 121 b 540 224 546 121 524 146 l 638 683 b 572 701 621 694 597 701 b 478 661 538 701 501 689 b 335 707 443 692 397 707 z m 372 219 b 232 132 335 168 276 132 b 157 232 189 132 157 163 b 385 603 157 383 217 603 b 450 592 406 603 426 600 z "},"в":{"ha":583,"x_min":0,"x_max":0,"o":"m 544 857 b 414 992 550 946 499 992 b 0 256 151 992 14 550 b 158 -11 -11 61 58 -11 b 543 383 333 -11 526 174 b 421 529 550 472 496 529 b 338 514 394 529 365 524 b 544 857 469 672 540 776 z m 383 407 b 242 104 413 326 368 104 b 161 278 196 104 154 142 b 164 313 161 289 163 300 b 293 463 211 367 254 417 b 383 407 338 460 369 442 z m 410 906 b 443 842 439 906 444 882 b 179 415 439 771 361 643 b 410 906 218 624 311 906 z "},"г":{"ha":471,"x_min":0,"x_max":0,"o":"m 8 614 b -1 586 0 606 -1 596 b 22 549 -1 571 7 556 b 157 610 54 579 111 610 b 231 538 197 610 231 589 b -74 179 231 396 -74 411 b 156 -11 -74 79 7 -11 b 511 254 282 -11 438 92 b 481 294 524 281 511 297 b 190 111 418 174 304 111 b 93 178 125 111 93 140 b 390 554 93 321 390 318 b 228 711 390 642 329 711 b 8 614 146 711 81 678 z "},"д":{"ha":693,"x_min":0,"x_max":0,"o":"m 708 128 b 707 197 732 149 728 179 b 508 76 658 156 585 114 b 521 133 513 94 517 114 l 638 683 b 572 701 621 694 597 701 b 476 661 538 701 500 689 b 335 707 442 692 397 707 b -15 222 142 707 -15 465 b 158 -11 -15 133 14 -11 b 361 118 233 -11 304 42 b 331 10 350 79 340 44 b -74 -364 143 -60 -74 -192 b 90 -535 -74 -479 6 -535 b 490 -3 331 -535 428 -261 b 708 128 589 43 683 106 z m 372 219 b 232 132 335 168 276 132 b 157 232 189 132 157 163 b 385 603 157 383 217 603 b 450 592 406 603 426 600 z m 78 -411 b 21 -346 60 -411 21 -394 b 301 -87 21 -253 149 -149 b 78 -411 231 -315 174 -411 z "},"е":{"ha":576,"x_min":0,"x_max":0,"o":"m 492 574 b 333 707 492 636 460 707 b -15 238 104 707 -15 418 b 221 -11 -15 67 90 -11 b 613 213 356 -11 517 72 b 578 260 628 238 614 267 b 290 110 518 181 390 110 b 161 213 226 110 175 138 b 492 574 429 361 492 456 z m 343 599 b 383 544 367 599 383 576 b 157 272 383 454 292 357 b 343 599 161 369 206 599 z "},"ж":{"ha":1114,"x_min":0,"x_max":0,"o":"m 63 149 b 86 211 63 164 65 189 b 29 233 71 225 47 233 b -68 144 -22 233 -68 211 b 69 -11 -68 39 -1 -11 b 376 231 182 -11 311 58 l 492 464 l 393 7 b 444 -11 406 -4 425 -11 b 540 64 489 -11 511 6 l 649 285 b 646 238 647 268 646 253 b 843 -11 646 57 742 -11 b 1149 213 950 -11 1074 57 b 1114 260 1165 238 1151 267 b 876 86 1071 181 969 86 b 793 260 829 86 793 138 b 933 617 793 468 853 617 b 957 568 949 617 957 600 b 935 478 957 549 950 511 b 990 458 953 465 972 460 b 1088 572 1042 456 1088 494 b 940 701 1088 663 1039 701 b 688 457 826 701 738 588 l 574 225 l 674 683 b 622 701 661 694 642 701 b 526 626 578 701 556 685 l 415 400 b 421 500 419 431 421 464 b 263 701 421 613 358 701 b 64 583 181 701 104 679 b 100 535 57 567 74 529 b 204 608 126 582 164 608 b 282 467 246 608 282 563 b 115 72 282 181 181 72 b 63 149 85 72 63 101 z "},"з":{"ha":500,"x_min":0,"x_max":0,"o":"m -221 -364 b -57 -535 -221 -479 -142 -535 b 206 -367 60 -535 143 -469 b 336 13 258 -278 317 -108 b 508 128 415 57 488 110 b 507 197 532 149 528 179 b 344 89 465 163 408 122 l 344 90 b 215 264 344 171 299 238 b 444 542 354 303 444 404 b 253 711 444 633 372 711 b 14 554 79 711 14 626 b 97 458 14 503 47 458 b 153 478 115 458 138 464 b 131 568 138 511 131 549 b 133 596 131 579 131 588 b 189 607 151 603 171 607 b 281 508 240 607 281 575 b 115 308 281 422 206 308 b 57 228 72 308 50 271 b 185 97 138 228 185 174 b 176 21 185 76 181 50 b -221 -364 -10 -53 -221 -187 z m 67 -311 b -69 -411 29 -375 -15 -411 b -126 -346 -87 -411 -126 -394 b 156 -74 -126 -247 1 -135 b 67 -311 131 -164 96 -260 z "},"и":{"ha":688,"x_min":0,"x_max":0,"o":"m -4 256 b 126 -11 -28 151 -28 -11 b 329 146 206 -11 274 56 b 458 -11 322 24 390 -11 b 699 126 533 -11 633 53 b 711 157 707 136 711 147 b 688 190 711 171 703 183 b 542 121 653 156 593 121 b 500 224 506 121 483 146 l 597 683 b 532 701 581 694 557 701 b 415 614 482 701 429 678 l 332 221 b 204 149 294 176 253 149 b 157 231 163 149 144 174 l 242 625 b 175 701 254 678 225 701 b 19 635 117 701 67 672 b 19 558 -8 613 1 569 b 47 575 32 569 40 575 b 61 540 60 575 67 563 z "},"й":{"ha":688,"x_min":0,"x_max":0,"o":"m -4 256 b 126 -11 -28 151 -28 -11 b 329 146 206 -11 274 56 b 458 -11 322 24 390 -11 b 699 126 533 -11 633 53 b 711 157 707 136 711 147 b 688 190 711 171 703 183 b 542 121 653 156 593 121 b 500 224 506 121 483 146 l 597 683 b 532 701 581 694 557 701 b 415 614 482 701 429 678 l 332 221 b 204 149 294 176 253 149 b 157 231 163 149 144 174 l 242 625 b 175 701 254 678 225 701 b 19 635 117 701 67 672 b 19 558 -8 613 1 569 b 47 575 32 569 40 575 b 61 540 60 575 67 563 z m 594 950 b 544 997 600 988 569 1001 b 414 885 517 921 460 885 b 350 947 378 885 350 906 b 360 989 350 964 353 976 b 304 1003 340 1000 326 1003 b 188 885 228 1003 188 946 b 329 750 188 818 232 750 b 594 950 478 750 585 851 z "},"к":{"ha":592,"x_min":0,"x_max":0,"o":"m 242 625 b 175 701 253 679 225 701 b 19 635 117 701 67 672 b 19 558 -8 613 1 569 b 47 575 32 569 40 575 b 61 540 60 575 67 564 l -53 7 b 13 -11 -36 -4 -12 -11 b 129 76 63 -11 115 13 l 178 313 l 203 319 b 399 -11 224 211 260 -11 b 603 126 457 -11 553 65 b 615 157 611 136 615 147 b 592 190 615 171 607 183 b 497 132 556 157 525 132 b 339 372 397 132 358 294 b 533 636 425 431 533 553 b 461 701 533 671 508 701 b 394 686 440 701 417 697 b 201 390 361 538 268 411 l 193 388 z "},"л":{"ha":733,"x_min":0,"x_max":0,"o":"m 504 -11 b 744 126 579 -11 679 53 b 757 157 753 136 757 147 b 733 190 757 171 749 183 b 588 121 699 156 639 121 b 546 224 551 121 529 146 l 635 646 b 260 713 646 701 347 713 b 106 593 181 713 106 679 b 135 522 106 569 115 544 b 300 583 163 554 225 572 b 61 103 201 219 133 147 b 85 211 61 131 67 172 b 28 231 67 224 44 231 b -69 144 -24 231 -69 211 b 29 -11 -69 43 -28 -12 b 213 150 82 -10 150 42 b 371 592 264 239 318 378 b 457 597 400 594 429 596 l 375 213 b 504 -11 336 28 407 -11 z "},"м":{"ha":1015,"x_min":0,"x_max":0,"o":"m 869 121 b 828 224 833 121 817 146 l 892 683 b 825 701 874 694 850 701 b 707 610 775 701 744 678 l 492 218 l 474 690 b 268 713 435 706 339 713 b 114 593 189 713 114 679 b 143 522 114 569 124 544 b 303 592 181 564 232 583 b 61 103 203 219 133 147 b 85 211 61 131 67 172 b 28 231 67 224 44 231 b -69 144 -24 231 -69 211 b 29 -11 -69 43 -28 -12 b 213 150 82 -10 150 42 b 332 447 253 218 292 313 l 342 61 b 458 -6 344 -4 393 -22 l 693 444 l 657 207 b 786 -11 629 25 717 -11 b 1026 126 861 -11 961 53 b 1039 157 1035 136 1039 147 b 1015 190 1039 171 1031 183 b 869 121 981 156 921 121 z "},"н":{"ha":675,"x_min":0,"x_max":0,"o":"m 450 -11 b 686 126 543 -11 621 53 b 699 157 694 136 699 147 b 675 190 699 171 690 183 b 529 121 640 156 581 121 b 488 224 493 121 471 146 l 585 683 b 519 701 568 694 544 701 b 408 614 469 701 422 678 l 365 414 b 193 403 313 408 256 404 l 242 625 b 175 701 254 678 225 701 b 19 635 117 701 67 672 b 19 558 -8 613 1 569 b 47 575 32 569 40 575 b 61 540 60 575 67 563 l -54 7 b 11 -11 -37 -4 -14 -11 b 124 76 61 -11 110 13 l 174 308 b 350 342 235 311 297 325 l 322 207 b 450 -11 285 28 381 -11 z "},"о":{"ha":599,"x_min":0,"x_max":0,"o":"m 339 707 b -17 235 129 707 -17 444 b 188 -11 -17 104 44 -11 b 554 458 406 -11 554 251 b 339 707 554 594 490 707 z m 369 601 b 450 469 426 601 450 544 b 251 110 450 324 361 110 b 161 279 203 110 161 157 b 369 601 161 415 243 601 z "},"п":{"ha":665,"x_min":0,"x_max":0,"o":"m 19 558 b 47 575 32 569 40 575 b 61 540 60 575 67 563 l -53 7 b 13 -11 -36 -4 -12 -11 b 129 76 63 -11 115 13 l 214 472 b 338 544 244 510 300 544 b 375 463 368 544 388 521 l 317 186 b 425 -11 282 24 356 -11 b 676 126 518 -11 611 53 b 689 157 685 136 689 147 b 665 190 689 171 681 183 b 519 121 631 156 571 121 b 482 178 492 121 474 138 l 550 497 b 456 701 582 643 529 701 b 228 563 375 701 286 646 l 242 625 b 175 701 254 678 225 701 b 19 635 117 701 67 672 b 19 558 -8 613 1 569 z "},"с":{"ha":576,"x_min":0,"x_max":0,"o":"m 613 213 b 578 260 628 238 614 267 b 290 110 518 181 390 110 b 157 260 215 110 157 150 b 325 608 157 460 247 608 b 376 568 360 608 376 594 b 354 478 376 549 369 511 b 410 458 369 464 392 458 b 507 572 461 458 507 494 b 339 707 507 663 451 707 b -15 238 131 707 -15 451 b 221 -11 -15 67 90 -11 b 613 213 356 -11 517 72 z "},"т":{"ha":990,"x_min":0,"x_max":0,"o":"m 242 625 b 175 701 254 678 225 701 b 19 635 117 701 67 672 b 19 558 -8 613 1 569 b 47 575 32 569 40 575 b 61 540 60 575 67 563 l -53 7 b 13 -11 -36 -4 -12 -11 b 129 76 63 -11 115 13 l 214 472 b 342 544 251 517 292 544 b 375 463 388 544 385 507 l 278 7 b 343 -11 294 -4 318 -11 b 460 76 393 -11 446 13 l 546 481 b 667 544 582 519 619 544 b 700 463 713 544 711 507 l 642 186 b 750 -11 607 24 681 -11 b 1001 126 843 -11 936 53 b 1014 157 1010 136 1014 147 b 990 190 1014 171 1006 183 b 844 121 956 156 896 121 b 807 178 817 121 799 138 l 875 497 b 758 701 911 660 821 701 b 550 558 678 701 608 642 b 433 701 554 657 490 701 b 228 563 354 701 285 644 z "},"у":{"ha":638,"x_min":0,"x_max":0,"o":"m -4 256 b 114 -10 -32 126 -24 -10 b 300 104 183 -10 246 36 b 271 -1 289 67 281 32 b -149 -364 40 -104 -149 -187 b 19 -535 -149 -479 -58 -535 b 433 -3 267 -535 369 -261 b 651 128 532 43 626 106 b 650 197 675 149 671 179 b 451 76 601 156 528 114 b 464 133 456 94 460 114 l 582 683 b 517 701 565 694 542 701 b 400 614 467 701 414 678 l 310 199 b 203 149 278 168 243 149 b 156 225 157 149 146 182 l 242 625 b 175 701 254 678 225 701 b 19 635 117 701 67 672 b 19 558 -8 613 1 569 b 47 575 32 569 40 575 b 61 540 60 575 67 563 z m 21 -411 b -36 -346 3 -411 -36 -394 b 243 -93 -36 -240 78 -174 b 21 -411 172 -317 117 -411 z "},"х":{"ha":667,"x_min":0,"x_max":0,"o":"m 438 -11 b 678 126 513 -11 613 53 b 690 157 686 136 690 147 b 667 190 690 171 682 183 b 521 121 632 156 572 121 b 429 253 460 121 438 188 l 417 351 b 644 647 554 469 628 551 b 532 801 665 772 592 801 b 439 694 486 801 442 767 b 514 629 494 696 514 660 b 407 432 514 572 458 492 l 394 531 b 244 707 379 653 340 707 b 96 635 176 707 117 653 b 96 558 69 610 76 576 b 232 550 169 624 226 600 l 261 315 b 61 101 174 174 115 132 b 85 211 61 129 67 171 b 28 231 67 224 44 231 b -69 144 -24 231 -69 211 b 29 -11 -69 43 -28 -11 b 274 206 110 -11 206 107 b 438 -11 300 33 356 -11 z "},"ч":{"ha":663,"x_min":0,"x_max":0,"o":"m 438 -11 b 674 126 531 -11 608 53 b 686 157 682 136 686 147 b 663 190 686 171 678 183 b 517 121 628 156 568 121 b 475 224 481 121 458 146 l 572 683 b 507 701 556 694 532 701 b 396 614 457 701 410 678 l 356 425 b 250 364 324 388 290 364 b 203 446 208 364 190 389 l 242 625 b 175 701 254 678 225 701 b 19 635 117 701 67 672 b 19 558 -8 613 1 569 b 47 575 32 569 40 575 b 61 540 60 575 67 563 l 46 471 b 172 232 22 367 18 232 b 333 319 228 232 285 260 l 310 207 b 438 -11 272 28 368 -11 z "},"ш":{"ha":1032,"x_min":0,"x_max":0,"o":"m -4 256 b 126 -11 -28 151 -28 -11 b 329 144 204 -11 274 56 b 471 -11 332 64 365 -11 b 674 146 550 -11 618 56 b 803 -11 667 24 735 -11 b 1043 126 894 -11 982 53 b 1056 157 1051 136 1056 147 b 1032 190 1056 171 1047 183 b 886 121 997 156 938 121 b 844 224 850 121 828 146 l 942 683 b 876 701 925 694 901 701 b 760 614 826 701 774 678 l 676 221 b 549 149 639 176 597 149 b 501 231 507 149 489 174 l 597 683 b 532 701 581 694 557 701 b 415 614 482 701 429 678 l 332 221 b 204 149 294 176 253 149 b 157 231 163 149 144 174 l 242 625 b 175 701 253 678 225 701 b 19 635 117 701 67 672 b 19 558 -8 613 1 569 b 47 575 32 569 40 575 b 61 540 60 575 67 563 z "},"ы":{"ha":871,"x_min":0,"x_max":0,"o":"m -4 256 b 126 -11 -28 151 -28 -11 b 457 325 358 -11 457 172 b 435 411 457 358 449 388 b 583 538 489 446 540 492 l 503 154 b 631 -11 476 28 561 -11 b 882 126 724 -11 817 53 b 894 157 890 136 894 147 b 871 190 894 171 886 183 b 725 121 836 156 776 121 b 683 224 689 121 667 146 l 781 683 b 715 701 764 694 740 701 b 626 667 668 701 636 679 b 388 461 572 601 485 513 b 313 485 364 476 338 485 b 232 353 233 485 203 422 b 306 350 256 350 281 349 b 204 104 335 161 246 104 b 157 231 167 104 139 144 l 242 625 b 175 701 254 678 225 701 b 19 635 117 701 67 672 b 19 558 -8 613 1 569 b 47 575 32 569 40 575 b 61 540 60 575 67 563 z "},"ю":{"ha":928,"x_min":0,"x_max":0,"o":"m 668 707 b 349 426 519 707 404 576 b 193 400 299 406 244 400 l 242 625 b 175 701 254 678 225 701 b 19 635 117 701 67 672 b 19 558 -8 613 1 569 b 47 575 32 569 40 575 b 61 540 60 575 65 563 l -54 7 b 11 -11 -37 -4 -14 -11 b 124 76 61 -11 110 13 l 174 308 b 326 351 231 311 282 325 b 313 235 317 313 313 272 b 517 -11 313 104 374 -11 b 883 458 735 -11 883 251 b 668 707 883 594 819 707 z m 699 601 b 779 469 756 601 779 544 b 581 110 779 324 690 110 b 490 279 532 110 490 157 b 699 601 490 415 572 601 z "},"я":{"ha":699,"x_min":0,"x_max":0,"o":"m 469 -11 b 710 126 549 -11 644 53 b 722 157 718 136 722 147 b 699 190 722 171 714 183 b 553 121 664 156 604 121 b 511 224 517 121 494 146 l 564 475 b 375 708 599 640 501 708 b 86 467 244 708 86 636 b 218 293 86 388 129 317 b 63 101 161 169 113 131 b 86 211 63 129 68 171 b 29 231 68 224 46 231 b -68 144 -22 231 -68 211 b 31 -11 -68 43 -26 -12 b 292 285 139 -8 240 175 l 357 285 l 340 207 b 469 -11 303 28 400 -11 z m 246 467 b 361 626 247 540 288 626 b 407 521 396 626 424 597 l 372 361 l 314 361 b 246 467 267 361 244 411 z "},"&":{"ha":1157,"x_min":0,"x_max":0,"o":"m 343 793 b 467 964 343 913 393 964 b 560 885 519 964 560 935 b 494 779 560 849 539 801 b 575 724 510 740 553 724 b 683 849 649 724 683 765 b 463 1042 683 961 607 1042 b 215 793 318 1042 215 918 b 276 554 215 715 238 635 b 53 260 129 511 53 382 b 349 -11 53 121 149 -11 b 642 115 451 -11 561 31 b 865 -15 722 53 800 7 b 986 150 917 -32 986 26 b 736 272 929 161 835 207 b 764 454 754 325 764 386 b 754 551 764 486 760 519 b 913 521 807 540 857 521 b 1017 678 1010 521 1063 618 b 731 678 929 632 842 678 b 611 533 615 678 561 597 b 672 561 624 549 642 560 b 676 499 675 540 676 519 b 650 335 676 439 667 383 b 343 793 490 460 343 628 z m 374 114 b 215 282 265 114 215 193 b 315 482 215 356 250 436 b 557 189 379 375 465 274 b 374 114 506 140 442 114 z "},":":{"ha":289,"x_min":0,"x_max":0,"o":"m 58 551 b 150 454 54 497 96 454 b 253 551 204 454 249 497 b 160 649 256 606 214 649 b 58 551 106 649 61 606 z m 6 143 b 97 46 1 89 43 46 b 200 143 151 46 196 89 b 107 240 203 197 161 240 b 6 143 53 240 8 197 z "},"_":{"ha":689,"x_min":0,"x_max":0,"o":"m 563 -39 b 653 40 625 -39 653 1 b 642 82 653 56 649 71 l 108 82 b 17 -3 46 82 17 35 b 29 -39 17 -17 21 -31 z "},"–":{"ha":549,"x_min":0,"x_max":0,"o":"m 99 354 b 331 314 179 354 250 314 b 435 471 428 314 481 411 b 135 471 343 425 251 471 b 11 376 57 471 11 426 b 29 326 11 360 17 343 b 99 354 43 343 63 354 z "},"—":{"ha":838,"x_min":0,"x_max":0,"o":"m 99 350 b 622 282 293 350 450 282 b 726 467 719 282 772 396 b 149 467 551 421 376 467 b 29 322 33 467 -21 386 b 99 350 43 339 63 350 z "},"•":{"ha":365,"x_min":0,"x_max":0,"o":"m 10 393 b 147 247 4 311 67 247 b 301 393 229 247 296 311 b 163 539 306 474 243 539 b 10 393 81 539 14 474 z "},"=":{"ha":496,"x_min":0,"x_max":0,"o":"m 344 324 b 435 403 407 324 435 364 b 424 444 435 418 431 433 l 108 444 b 17 360 46 444 17 397 b 29 324 17 346 21 332 z m 392 546 b 482 625 454 546 482 586 b 471 667 482 640 478 656 l 156 667 b 64 582 93 667 64 619 b 76 546 64 568 68 554 z "},"?":{"ha":490,"x_min":0,"x_max":0,"o":"m 157 769 b 128 838 132 789 128 819 b 233 950 128 894 164 950 b 308 851 272 950 308 919 b 207 606 308 740 260 675 b 78 253 144 521 78 433 b 199 304 151 228 199 258 b 343 583 199 433 272 510 b 489 860 418 660 489 733 b 256 1069 489 1000 372 1069 b 7 853 114 1069 7 972 b 89 739 7 785 31 739 b 157 769 118 739 142 751 z m 33 82 b 125 -15 29 28 71 -15 b 228 82 179 -15 224 28 b 135 179 231 136 189 179 b 33 82 81 179 36 136 z "},"!":{"ha":386,"x_min":0,"x_max":0,"o":"m 419 1038 b 353 1056 403 1049 378 1056 b 233 967 301 1056 247 1032 l 99 264 b 143 251 110 257 126 251 b 224 311 178 251 213 268 z m 26 64 b 118 -33 22 10 64 -33 b 221 64 172 -33 217 10 b 128 161 224 118 182 161 b 26 64 74 161 29 118 z "},"o":{"ha":629,"x_min":0,"x_max":0,"o":"m 339 707 b -17 235 129 707 -17 444 b 188 -11 -17 104 44 -11 b 554 458 406 -11 554 251 b 339 707 554 594 490 707 z m 369 601 b 450 469 426 601 450 544 b 251 110 450 324 361 110 b 161 279 203 110 161 157 b 369 601 161 415 243 601 z "},"ь":{"ha":526,"x_min":0,"x_max":0,"o":"m -4 256 b 126 -11 -28 151 -28 -11 b 471 325 333 -11 471 203 b 340 471 471 432 414 471 b 201 438 293 471 244 457 l 242 625 b 175 701 253 678 225 701 b 19 635 117 701 67 672 b 19 558 -8 613 1 569 b 47 575 32 569 40 575 b 61 540 60 575 67 563 z m 250 367 b 326 285 306 367 326 331 b 204 97 326 163 256 97 b 157 231 167 97 139 144 l 182 351 b 250 367 206 363 232 367 z "},";":{"ha":329,"x_min":0,"x_max":0,"o":"m 78 551 b 169 454 74 497 115 454 b 272 551 224 454 268 497 b 179 649 275 606 233 649 b 78 551 125 649 81 606 z m -6 -200 b 218 69 126 -154 218 -31 b 128 163 218 122 185 163 b 26 71 74 163 33 121 b -29 -164 57 31 74 -75 b -6 -200 -39 -189 -21 -206 z "},"$":{"ha":792,"x_min":0,"x_max":0,"o":"m 639 1221 b 592 1233 628 1229 610 1233 b 506 1169 554 1233 515 1217 l 485 1068 b 224 799 332 1054 224 944 b 501 289 224 543 501 513 b 333 96 501 186 447 96 b 188 243 238 96 188 169 b 347 353 188 322 256 383 b 357 397 354 369 357 383 b 265 483 357 450 311 483 b 44 253 121 483 44 371 b 256 -4 44 140 113 25 l 217 -210 b 249 -219 225 -215 238 -219 b 307 -176 274 -219 299 -207 l 351 -10 b 694 331 547 -1 694 124 b 404 824 694 569 404 625 b 535 992 404 913 449 992 b 619 903 593 992 619 949 b 549 793 619 857 593 807 b 629 738 564 754 607 738 b 742 874 700 738 742 801 b 596 1058 742 947 697 1031 z "},"«":{"ha":644,"x_min":0,"x_max":0,"o":"m 442 633 b 301 644 413 672 349 692 l 35 371 l 226 97 b 369 108 260 50 329 69 l 169 371 z m 631 572 b 508 592 608 608 551 629 l 258 371 l 447 150 b 575 169 479 113 543 133 l 379 371 z "},"»":{"ha":626,"x_min":0,"x_max":0,"o":"m 343 97 l 610 371 l 418 644 b 275 633 385 692 315 672 l 474 371 l 203 108 b 343 97 232 69 296 50 z m 14 169 b 136 150 36 133 93 113 l 386 371 l 197 592 b 69 572 165 629 101 608 l 264 371 z "},"ﬀ":{"ha":347,"x_min":0,"x_max":0,"o":"m 471 694 l 256 694 l 265 736 b 386 933 288 840 322 933 b 451 744 468 933 475 854 l 511 744 b 393 1032 560 924 531 1032 b 104 744 261 1032 143 924 l 93 694 l 65 694 b 7 614 22 694 0 658 l 76 614 l -56 0 b -251 -411 -117 -283 -157 -411 b -347 -335 -304 -411 -336 -385 b -393 -372 -375 -335 -393 -349 b -240 -535 -393 -489 -324 -535 b 107 0 -46 -535 26 -375 l 239 614 l 471 614 z "},"ﬁ":{"ha":686,"x_min":0,"x_max":0,"o":"m -56 0 b -251 -411 -117 -283 -157 -411 b -347 -335 -304 -411 -336 -385 b -393 -372 -375 -335 -393 -349 b -240 -535 -393 -489 -324 -535 b 107 0 -46 -535 26 -375 l 239 614 l 382 614 b 411 579 404 614 417 603 l 322 154 b 446 -11 296 28 376 -11 b 697 126 539 -11 632 53 b 710 157 706 136 710 147 b 686 190 710 171 701 183 b 540 121 651 156 592 121 b 499 224 504 121 482 146 l 582 618 b 515 694 593 671 565 694 l 256 694 l 265 736 b 410 939 294 871 336 939 b 474 928 426 939 446 936 b 447 803 471 889 461 846 b 533 775 472 783 508 775 b 632 883 593 775 632 813 b 429 1032 632 974 540 1032 b 104 744 276 1032 147 947 l 93 694 l 65 694 b 7 614 22 694 0 658 l 76 614 z "},"ﬂ":{"ha":700,"x_min":0,"x_max":0,"o":"m -50 0 b -246 -411 -111 -283 -151 -411 b -342 -335 -299 -411 -331 -385 b -387 -372 -369 -335 -387 -349 b -235 -535 -387 -489 -318 -535 b 113 0 -40 -535 32 -375 l 244 614 l 310 614 b 368 694 353 614 375 650 l 261 694 l 271 736 b 400 947 297 860 329 947 b 461 815 463 947 479 899 l 332 186 b 444 -11 293 24 371 -11 b 699 126 539 -11 632 53 b 711 157 707 136 711 147 b 688 190 711 171 703 183 b 539 121 653 156 592 121 b 493 178 507 121 485 138 l 621 800 b 449 1032 656 967 550 1032 b 110 744 289 1032 151 940 l 99 694 l 71 694 b 13 614 28 694 6 658 l 82 614 z "},"<":{"ha":467,"x_min":0,"x_max":0,"o":"m 481 686 b 313 699 446 732 367 758 b -7 371 211 585 108 474 b 222 43 54 260 136 156 b 394 56 265 -12 346 10 b 153 368 301 156 217 258 b 481 686 269 461 376 571 z "},">":{"ha":467,"x_min":0,"x_max":0,"o":"m -14 56 b 154 43 21 10 100 -17 b 474 371 256 157 358 268 b 244 699 413 482 331 586 b 72 686 201 754 121 732 b 313 374 165 586 250 483 b -14 56 196 281 90 169 z "},"\"":{"ha":489,"x_min":0,"x_max":0,"o":"m 68 694 b 254 957 149 729 254 854 b 156 1056 254 1010 213 1056 b 60 963 101 1056 60 1013 b 92 846 60 914 92 890 b 39 731 92 818 82 779 b 68 694 39 708 53 694 z m 315 694 b 501 957 396 729 501 854 b 403 1056 501 1010 460 1056 b 307 963 349 1056 307 1013 b 339 846 307 914 339 890 b 286 731 339 818 329 779 b 315 694 286 708 300 694 z "},"€":{"ha":775,"x_min":0,"x_max":0,"o":"m 376 546 b 467 625 439 546 467 586 b 456 667 467 640 463 656 l 261 667 b 478 975 307 842 393 975 b 496 807 586 975 579 842 b 578 751 511 768 553 751 b 690 893 646 751 690 819 b 497 1069 690 978 632 1069 b 76 667 311 1069 149 897 l 71 667 b -21 582 8 667 -21 619 b -8 546 -21 568 -17 554 l 47 546 b 38 472 43 521 40 497 l 10 472 b -82 388 -53 472 -82 425 b -69 351 -82 374 -78 360 l 36 351 b 349 -11 49 156 144 -11 b 654 193 499 -11 654 96 b 613 231 654 217 639 231 b 426 118 574 151 508 118 b 233 351 306 118 247 218 l 315 351 b 406 431 378 351 406 392 b 394 472 406 446 401 461 l 232 472 b 239 546 233 497 236 521 z "},"’":{"ha":300,"x_min":0,"x_max":0,"o":"m 68 694 b 254 957 149 729 254 854 b 156 1056 254 1010 213 1056 b 60 963 101 1056 60 1013 b 92 846 60 914 92 890 b 39 731 92 818 82 779 b 68 694 39 708 53 694 z "},"‘":{"ha":300,"x_min":0,"x_max":0,"o":"m 225 1056 b 39 793 144 1021 39 896 b 138 694 39 740 81 694 b 233 788 192 694 233 738 b 201 904 233 836 201 860 b 254 1019 201 932 211 971 b 225 1056 254 1042 240 1056 z "},"“":{"ha":538,"x_min":0,"x_max":0,"o":"m 225 1056 b 39 793 144 1021 39 896 b 138 694 39 740 81 694 b 233 788 192 694 233 738 b 201 904 233 836 201 860 b 254 1019 201 932 211 971 b 225 1056 254 1042 240 1056 z m 472 1056 b 286 793 392 1021 286 896 b 385 694 286 740 328 694 b 481 788 439 694 481 738 b 449 904 481 836 449 860 b 501 1019 449 932 458 971 b 472 1056 501 1042 488 1056 z "},"”":{"ha":538,"x_min":0,"x_max":0,"o":"m 68 694 b 254 957 149 729 254 854 b 156 1056 254 1010 213 1056 b 60 963 101 1056 60 1013 b 92 846 60 914 92 890 b 39 731 92 818 82 779 b 68 694 39 708 53 694 z m 315 694 b 501 957 396 729 501 854 b 403 1056 501 1010 460 1056 b 307 963 349 1056 307 1013 b 339 846 307 914 339 890 b 286 731 339 818 329 779 b 315 694 286 708 300 694 z "},"|":{"ha":429,"x_min":0,"x_max":0,"o":"m 394 944 b 317 1028 407 1007 368 1025 l 68 -139 b 146 -222 57 -193 97 -226 z "},"#":{"ha":753,"x_min":0,"x_max":0,"o":"m 719 629 b 785 722 782 629 792 671 l 639 722 l 686 944 b 608 1028 699 1007 660 1025 l 543 722 l 344 722 l 392 944 b 314 1028 404 1007 365 1025 l 249 722 l 150 722 b 85 629 94 722 71 675 l 228 629 l 183 419 l 81 419 b 15 326 25 419 1 372 l 163 326 l 108 72 b 186 -11 97 18 138 -15 l 258 326 l 457 326 l 403 72 b 481 -11 392 18 432 -15 l 553 326 l 650 326 b 715 419 713 326 722 368 l 574 419 l 618 629 z m 324 629 l 522 629 l 478 419 l 279 419 z "},"„":{"ha":538,"x_min":0,"x_max":0,"o":"m 68 -200 b 254 63 149 -165 254 -40 b 156 161 254 115 213 161 b 60 68 101 161 60 118 b 92 -49 60 19 92 -4 b 39 -164 92 -76 82 -115 b 68 -200 39 -186 53 -200 z m 315 -200 b 501 63 396 -165 501 -40 b 403 161 501 115 460 161 b 307 68 349 161 307 118 b 339 -49 307 19 339 -4 b 286 -164 339 -76 329 -115 b 315 -200 286 -186 300 -200 z "},"‚":{"ha":300,"x_min":0,"x_max":0,"o":"m 26 -200 b 250 69 158 -154 250 -31 b 160 163 250 122 217 163 b 58 71 106 163 65 121 b 3 -164 89 31 106 -75 b 26 -200 -7 -189 11 -206 z "},"A":{"ha":899,"x_min":0,"x_max":0,"o":"m 910 126 b 922 157 918 136 922 147 b 899 190 922 171 914 183 b 757 121 867 163 801 121 b 711 224 719 121 694 143 l 869 965 l 875 965 b 924 1019 907 965 924 993 b 904 1056 924 1033 918 1047 b 444 1083 797 1021 626 1083 b 214 896 281 1083 214 983 b 326 764 214 826 256 764 b 386 778 346 764 365 768 b 358 858 369 797 358 828 b 531 994 358 924 404 994 l 558 994 b 106 104 356 317 215 146 l 106 117 b 135 260 106 149 111 206 b 65 283 115 275 90 283 b -53 179 3 283 -53 260 b 67 -11 -53 56 -3 -11 b 419 379 186 -11 296 93 l 575 379 l 528 154 b 669 -11 501 28 590 -11 b 910 126 740 -11 832 47 z m 703 982 l 592 460 l 453 460 b 626 990 507 599 564 772 b 703 982 653 988 678 985 z "},"~":{"ha":489,"x_min":0,"x_max":0,"o":"m 139 356 b 332 293 201 357 269 290 b 436 404 388 293 436 344 b 394 483 436 436 422 467 b 133 479 331 399 242 479 b 22 368 58 479 22 411 b 58 306 22 344 31 318 b 139 356 74 339 107 356 z "},"№":{"ha":1488,"x_min":0,"x_max":0,"o":"m 438 994 l 439 994 l 443 979 b 158 110 342 342 236 160 l 158 117 b 188 260 158 149 164 206 b 118 283 168 275 143 283 b 0 179 56 283 0 260 b 119 -11 0 56 50 -11 b 486 792 240 -11 372 136 l 660 35 b 747 -4 671 -11 706 -18 l 856 374 b 963 982 906 550 963 796 b 871 1097 963 1035 947 1097 b 757 1061 818 1097 782 1083 b 831 769 808 990 831 888 b 764 317 831 657 817 524 l 614 965 l 615 965 b 664 1019 647 965 664 993 b 644 1056 664 1033 658 1047 b 351 1083 585 1022 467 1083 b 121 896 188 1083 121 983 b 233 764 121 826 163 764 b 293 778 253 764 272 768 b 265 858 276 797 265 828 b 438 994 265 924 311 994 z m 1182 521 b 1447 875 1338 521 1447 718 b 1294 1060 1447 974 1401 1060 b 1029 706 1139 1060 1029 863 b 1182 521 1029 607 1075 521 z m 1379 878 b 1229 611 1379 751 1317 611 b 1163 739 1193 611 1163 647 b 1310 974 1163 892 1246 974 b 1379 878 1349 974 1379 943 z m 1033 371 b 1265 331 1114 371 1185 331 b 1358 471 1363 331 1404 411 b 1072 471 1271 425 1183 471 b 964 343 957 471 932 406 b 1033 371 978 360 997 371 z "},"[":{"ha":586,"x_min":0,"x_max":0,"o":"m 49 -111 b 110 -206 39 -158 32 -206 b 403 -206 213 -206 324 -160 b 299 -49 449 -146 396 -49 b 204 -68 265 -49 235 -58 b 425 935 260 208 376 667 b 529 940 454 938 483 940 b 622 919 561 940 592 936 b 532 1072 668 985 629 1072 b 415 1040 489 1072 433 1040 b 350 1090 404 1072 383 1090 b 247 1006 296 1090 247 1068 b 292 938 247 972 258 949 b 49 -111 243 643 113 192 z "},"]":{"ha":558,"x_min":0,"x_max":0,"o":"m 510 996 b 449 1090 519 1043 526 1090 b 156 1090 346 1090 235 1044 b 260 933 110 1031 163 933 b 353 953 292 933 322 943 b 133 -50 297 675 181 217 b 29 -56 103 -53 74 -56 b -64 -35 -3 -56 -33 -51 b 26 -187 -110 -100 -71 -187 b 143 -156 69 -187 125 -156 b 208 -206 154 -187 175 -206 b 311 -121 263 -206 311 -183 b 265 -53 311 -87 300 -64 b 510 996 315 242 444 692 z "},"{":{"ha":538,"x_min":0,"x_max":0,"o":"m 329 278 b 272 400 336 335 311 374 b 418 646 371 442 408 544 l 435 838 b 547 997 446 958 481 997 b 653 979 576 997 613 990 b 510 1069 683 1031 657 1069 b 281 831 353 1069 294 938 b 267 563 274 782 282 674 b 210 440 260 515 244 467 b 144 454 188 450 164 454 b 33 381 65 454 38 410 b 99 314 29 350 47 314 b 169 339 122 314 150 322 b 194 265 194 331 200 306 b 56 -96 183 176 69 13 b 222 -296 39 -212 72 -296 b 438 -176 369 -296 461 -254 b 300 -203 389 -192 340 -203 b 203 -101 238 -203 192 -179 b 329 278 221 31 308 133 z "},"}":{"ha":538,"x_min":0,"x_max":0,"o":"m 206 496 b 263 374 197 438 222 399 b 117 128 164 332 125 228 l 100 -64 b -12 -224 89 -185 54 -224 b -118 -206 -42 -224 -78 -217 b 25 -296 -149 -257 -122 -296 b 254 -57 182 -296 240 -164 b 268 211 261 -8 253 100 b 324 332 274 257 290 306 b 390 319 347 322 371 319 b 501 393 469 319 497 364 b 436 460 506 424 488 460 b 364 433 411 460 383 451 b 340 508 339 443 335 468 b 479 869 351 597 465 761 b 313 1069 496 986 463 1069 b 97 950 165 1069 74 1028 b 235 976 146 965 194 976 b 332 875 297 976 343 953 b 206 496 314 743 226 640 z "},"ﬆ":{"ha":868,"x_min":0,"x_max":0,"o":"m 131 -11 b 415 224 335 -11 415 89 b 188 515 415 400 188 368 b 268 628 188 590 231 628 b 310 611 283 628 299 622 b 304 532 307 586 304 560 b 307 478 304 514 306 497 b 363 458 325 465 344 460 b 460 572 414 456 460 494 b 401 683 460 625 440 661 b 553 793 438 756 501 793 b 614 697 604 793 629 767 l 613 694 l 585 694 b 526 614 542 694 519 658 l 596 614 l 507 194 b 615 -11 475 42 531 -11 b 879 126 708 -11 814 53 b 892 157 888 136 892 147 b 868 190 892 171 883 183 b 722 121 833 156 774 121 b 681 224 686 121 664 146 l 763 614 l 824 614 b 882 694 867 614 889 650 l 781 694 l 782 701 b 626 914 814 858 740 914 b 335 704 522 914 392 850 b 285 707 319 706 303 707 b 47 493 124 707 47 604 b 276 192 47 285 276 297 b 167 81 276 124 219 81 b 79 172 122 81 79 108 b 108 260 79 206 90 239 b 53 279 93 274 75 279 b -65 172 -15 279 -56 229 b 131 -11 -81 79 -18 -11 z "},"f":{"ha":347,"x_min":0,"x_max":0,"o":"m 304 614 b 363 694 347 614 369 650 l 256 694 l 265 736 b 386 933 288 840 322 933 b 438 893 421 933 438 919 b 415 803 438 874 431 836 b 471 783 433 790 453 785 b 568 897 522 781 568 819 b 393 1032 568 988 511 1032 b 104 744 261 1032 143 924 l 93 694 l 65 694 b 7 614 22 694 0 658 l 76 614 l -56 0 b -251 -411 -117 -283 -157 -411 b -347 -335 -304 -411 -336 -385 b -393 -372 -375 -335 -393 -349 b -240 -535 -393 -489 -324 -535 b 107 0 -46 -535 26 -375 l 239 614 z "}}}
